<svg width="1600" height="80" viewBox="0 0 1600 80" fill="none" xmlns="http://www.w3.org/2000/svg">
<rect width="1600" height="80" fill="white"/>
<line x1="-4.37114e-08" y1="79.5" x2="1600" y2="79.4999" stroke="#ECECEC"/>
<path d="M223.242 30.592H226.57L228.676 36.702L230.808 30.592H234.11L230.938 38.99L233.278 44.866L238.504 30.54H242.404L235.02 49H231.926L228.676 41.252L225.452 49H222.358L215 30.54H218.848L224.1 44.866L226.388 38.99L223.242 30.592ZM249.227 49.26C248.135 49.26 247.147 49.078 246.263 48.714C245.379 48.3327 244.625 47.8213 244.001 47.18C243.377 46.5213 242.892 45.776 242.545 44.944C242.216 44.0947 242.051 43.202 242.051 42.266C242.051 40.966 242.337 39.7787 242.909 38.704C243.498 37.6293 244.33 36.7713 245.405 36.13C246.497 35.4713 247.78 35.142 249.253 35.142C250.744 35.142 252.018 35.4713 253.075 36.13C254.132 36.7713 254.938 37.6293 255.493 38.704C256.065 39.7613 256.351 40.9053 256.351 42.136C256.351 42.344 256.342 42.5607 256.325 42.786C256.308 42.994 256.29 43.1673 256.273 43.306H245.743C245.812 43.9993 246.012 44.606 246.341 45.126C246.688 45.646 247.121 46.0447 247.641 46.322C248.178 46.582 248.75 46.712 249.357 46.712C250.05 46.712 250.7 46.5473 251.307 46.218C251.931 45.8713 252.356 45.4207 252.581 44.866L255.571 45.698C255.242 46.3913 254.765 47.0067 254.141 47.544C253.534 48.0813 252.815 48.506 251.983 48.818C251.151 49.1127 250.232 49.26 249.227 49.26ZM245.665 41.096H252.789C252.72 40.4027 252.52 39.8047 252.191 39.302C251.879 38.782 251.463 38.3833 250.943 38.106C250.423 37.8113 249.842 37.664 249.201 37.664C248.577 37.664 248.005 37.8113 247.485 38.106C246.982 38.3833 246.566 38.782 246.237 39.302C245.925 39.8047 245.734 40.4027 245.665 41.096ZM267.001 49.26C265.961 49.26 265.034 49.026 264.219 48.558C263.405 48.09 262.763 47.4487 262.295 46.634V49H259.253V30.02H262.737V37.768C263.223 36.9533 263.855 36.312 264.635 35.844C265.433 35.376 266.36 35.142 267.417 35.142C268.301 35.142 269.107 35.3327 269.835 35.714C270.563 36.078 271.187 36.5893 271.707 37.248C272.245 37.9067 272.652 38.6607 272.929 39.51C273.224 40.3593 273.371 41.2693 273.371 42.24C273.371 43.2107 273.207 44.1207 272.877 44.97C272.565 45.8193 272.123 46.5733 271.551 47.232C270.979 47.8733 270.303 48.376 269.523 48.74C268.761 49.0867 267.92 49.26 267.001 49.26ZM266.039 46.296C266.594 46.296 267.097 46.192 267.547 45.984C268.015 45.7587 268.414 45.464 268.743 45.1C269.09 44.736 269.35 44.3113 269.523 43.826C269.714 43.3233 269.809 42.8033 269.809 42.266C269.809 41.5207 269.653 40.836 269.341 40.212C269.047 39.5707 268.631 39.0593 268.093 38.678C267.573 38.2967 266.958 38.106 266.247 38.106C265.745 38.106 265.259 38.2273 264.791 38.47C264.341 38.6953 263.933 39.0073 263.569 39.406C263.223 39.8047 262.945 40.2553 262.737 40.758V44.008C262.841 44.3547 263.006 44.6667 263.231 44.944C263.474 45.2213 263.751 45.464 264.063 45.672C264.375 45.8627 264.696 46.0187 265.025 46.14C265.372 46.244 265.71 46.296 266.039 46.296Z" fill="#2196F3"/>
<path d="M287.645 35.376C287.523 35.2547 287.298 35.09 286.969 34.882C286.657 34.674 286.267 34.4747 285.799 34.284C285.348 34.0933 284.854 33.9287 284.317 33.79C283.779 33.634 283.233 33.556 282.679 33.556C281.708 33.556 280.971 33.738 280.469 34.102C279.983 34.466 279.741 34.9773 279.741 35.636C279.741 36.1387 279.897 36.5373 280.209 36.832C280.521 37.1267 280.989 37.378 281.613 37.586C282.237 37.794 283.017 38.0193 283.953 38.262C285.166 38.5567 286.215 38.9207 287.099 39.354C288 39.77 288.685 40.3247 289.153 41.018C289.638 41.694 289.881 42.5953 289.881 43.722C289.881 44.71 289.699 45.5593 289.335 46.27C288.971 46.9633 288.468 47.5267 287.827 47.96C287.185 48.3933 286.457 48.714 285.643 48.922C284.828 49.1127 283.961 49.208 283.043 49.208C282.124 49.208 281.205 49.1127 280.287 48.922C279.368 48.7313 278.484 48.4627 277.635 48.116C276.785 47.752 276.005 47.3187 275.295 46.816L276.881 43.722C277.037 43.878 277.314 44.086 277.713 44.346C278.111 44.5887 278.597 44.84 279.169 45.1C279.741 45.3427 280.365 45.5507 281.041 45.724C281.717 45.8973 282.401 45.984 283.095 45.984C284.065 45.984 284.802 45.8193 285.305 45.49C285.807 45.1607 286.059 44.6927 286.059 44.086C286.059 43.5313 285.859 43.098 285.461 42.786C285.062 42.474 284.507 42.2053 283.797 41.98C283.086 41.7373 282.245 41.4773 281.275 41.2C280.113 40.8707 279.143 40.5067 278.363 40.108C277.583 39.692 277.002 39.172 276.621 38.548C276.239 37.924 276.049 37.144 276.049 36.208C276.049 34.9427 276.343 33.8853 276.933 33.036C277.539 32.1693 278.354 31.5193 279.377 31.086C280.399 30.6353 281.535 30.41 282.783 30.41C283.649 30.41 284.464 30.5053 285.227 30.696C286.007 30.8867 286.735 31.138 287.411 31.45C288.087 31.762 288.693 32.1 289.231 32.464L287.645 35.376ZM300.893 48.298C300.599 48.4193 300.243 48.558 299.827 48.714C299.411 48.87 298.961 48.9913 298.475 49.078C298.007 49.182 297.531 49.234 297.045 49.234C296.404 49.234 295.815 49.1213 295.277 48.896C294.74 48.6707 294.307 48.3153 293.977 47.83C293.665 47.3273 293.509 46.6773 293.509 45.88V38.054H291.715V35.376H293.509V30.956H296.993V35.376H299.853V38.054H296.993V44.71C297.011 45.178 297.141 45.516 297.383 45.724C297.626 45.932 297.929 46.036 298.293 46.036C298.657 46.036 299.013 45.9753 299.359 45.854C299.706 45.7327 299.983 45.6287 300.191 45.542L300.893 48.298ZM303.358 43.904V35.376H306.842V43.15C306.842 44.19 307.033 44.9787 307.414 45.516C307.795 46.036 308.359 46.296 309.104 46.296C309.555 46.296 309.997 46.2093 310.43 46.036C310.881 45.8453 311.288 45.568 311.652 45.204C312.033 44.84 312.354 44.3807 312.614 43.826V35.376H316.098V45.1C316.098 45.464 316.159 45.724 316.28 45.88C316.419 46.036 316.635 46.1313 316.93 46.166V49C316.583 49.052 316.289 49.0867 316.046 49.104C315.821 49.1387 315.613 49.156 315.422 49.156C314.798 49.156 314.287 49.0173 313.888 48.74C313.507 48.4453 313.281 48.0467 313.212 47.544L313.134 46.452C312.527 47.3707 311.747 48.0727 310.794 48.558C309.841 49.026 308.792 49.26 307.648 49.26C306.244 49.26 305.178 48.8093 304.45 47.908C303.722 46.9893 303.358 45.6547 303.358 43.904ZM319.508 42.188C319.508 40.8707 319.768 39.6833 320.288 38.626C320.808 37.5513 321.528 36.702 322.446 36.078C323.365 35.454 324.414 35.142 325.592 35.142C326.598 35.142 327.499 35.3933 328.296 35.896C329.111 36.3813 329.744 37.0053 330.194 37.768V30.02H333.678V45.1C333.678 45.464 333.739 45.724 333.86 45.88C333.982 46.036 334.19 46.1313 334.484 46.166V49C333.878 49.1213 333.384 49.182 333.002 49.182C332.378 49.182 331.858 49.026 331.442 48.714C331.044 48.402 330.818 47.9947 330.766 47.492L330.714 46.634C330.212 47.4833 329.527 48.1333 328.66 48.584C327.811 49.0347 326.918 49.26 325.982 49.26C325.046 49.26 324.18 49.078 323.382 48.714C322.602 48.35 321.918 47.8473 321.328 47.206C320.756 46.5647 320.306 45.8193 319.976 44.97C319.664 44.1033 319.508 43.176 319.508 42.188ZM330.194 44.008V40.758C330.021 40.2553 329.744 39.8047 329.362 39.406C328.981 39.0073 328.556 38.6953 328.088 38.47C327.62 38.2273 327.152 38.106 326.684 38.106C326.147 38.106 325.662 38.2187 325.228 38.444C324.795 38.6693 324.414 38.9727 324.084 39.354C323.772 39.7353 323.53 40.1773 323.356 40.68C323.2 41.1827 323.122 41.7113 323.122 42.266C323.122 42.8207 323.209 43.3493 323.382 43.852C323.573 44.3373 323.842 44.762 324.188 45.126C324.535 45.49 324.934 45.776 325.384 45.984C325.852 46.192 326.355 46.296 326.892 46.296C327.222 46.296 327.551 46.244 327.88 46.14C328.227 46.0187 328.548 45.8627 328.842 45.672C329.154 45.464 329.423 45.2213 329.648 44.944C329.891 44.6493 330.073 44.3373 330.194 44.008ZM337.878 49V35.376H341.362V49H337.878ZM337.878 33.478V30.02H341.362V33.478H337.878ZM351.577 49.26C350.468 49.26 349.471 49.078 348.587 48.714C347.703 48.3327 346.949 47.8127 346.325 47.154C345.718 46.4953 345.25 45.7413 344.921 44.892C344.592 44.0427 344.427 43.15 344.427 42.214C344.427 41.2607 344.592 40.3593 344.921 39.51C345.25 38.6607 345.718 37.9067 346.325 37.248C346.949 36.5893 347.703 36.078 348.587 35.714C349.471 35.3327 350.468 35.142 351.577 35.142C352.686 35.142 353.674 35.3327 354.541 35.714C355.425 36.078 356.179 36.5893 356.803 37.248C357.427 37.9067 357.895 38.6607 358.207 39.51C358.536 40.3593 358.701 41.2607 358.701 42.214C358.701 43.15 358.536 44.0427 358.207 44.892C357.895 45.7413 357.427 46.4953 356.803 47.154C356.196 47.8127 355.451 48.3327 354.567 48.714C353.683 49.078 352.686 49.26 351.577 49.26ZM348.015 42.214C348.015 43.0113 348.171 43.722 348.483 44.346C348.795 44.9527 349.22 45.4293 349.757 45.776C350.294 46.1227 350.901 46.296 351.577 46.296C352.236 46.296 352.834 46.1227 353.371 45.776C353.908 45.412 354.333 44.9267 354.645 44.32C354.974 43.696 355.139 42.9853 355.139 42.188C355.139 41.408 354.974 40.706 354.645 40.082C354.333 39.458 353.908 38.9727 353.371 38.626C352.834 38.2793 352.236 38.106 351.577 38.106C350.901 38.106 350.294 38.288 349.757 38.652C349.22 38.9987 348.795 39.484 348.483 40.108C348.171 40.7147 348.015 41.4167 348.015 42.214Z" fill="black"/>
<path d="M459.891 41.7598H461.6C461.545 42.4115 461.363 42.9925 461.053 43.5029C460.743 44.0088 460.308 44.4076 459.747 44.6992C459.187 44.9909 458.505 45.1367 457.703 45.1367C457.088 45.1367 456.534 45.0273 456.042 44.8086C455.55 44.5853 455.128 44.2708 454.777 43.8652C454.426 43.4551 454.158 42.9606 453.971 42.3818C453.788 41.8031 453.697 41.1559 453.697 40.4404V39.6133C453.697 38.8978 453.791 38.2507 453.978 37.6719C454.169 37.0931 454.442 36.5986 454.798 36.1885C455.153 35.7738 455.579 35.457 456.076 35.2383C456.577 35.0195 457.14 34.9102 457.765 34.9102C458.558 34.9102 459.228 35.056 459.774 35.3477C460.321 35.6393 460.745 36.0426 461.046 36.5576C461.351 37.0726 461.538 37.6628 461.606 38.3281H459.897C459.852 37.8997 459.752 37.5329 459.597 37.2275C459.446 36.9222 459.223 36.6898 458.927 36.5303C458.631 36.3662 458.243 36.2842 457.765 36.2842C457.373 36.2842 457.031 36.3571 456.739 36.5029C456.448 36.6488 456.204 36.863 456.008 37.1455C455.812 37.4281 455.664 37.7767 455.563 38.1914C455.468 38.6016 455.42 39.071 455.42 39.5996V40.4404C455.42 40.9417 455.463 41.3975 455.55 41.8076C455.641 42.2132 455.778 42.5618 455.96 42.8535C456.147 43.1452 456.384 43.3708 456.671 43.5303C456.958 43.6898 457.302 43.7695 457.703 43.7695C458.191 43.7695 458.585 43.6921 458.886 43.5371C459.191 43.3822 459.421 43.1566 459.576 42.8604C459.736 42.5596 459.84 42.1927 459.891 41.7598ZM466.706 37.6035V45H465.051V37.6035H466.706ZM469.133 37.6035V38.9023H462.666V37.6035H469.133ZM472.742 44.1934L474.751 37.6035H476.515L473.548 46.1279C473.48 46.3102 473.391 46.5085 473.282 46.7227C473.172 46.9368 473.029 47.1396 472.851 47.3311C472.678 47.527 472.461 47.6842 472.202 47.8027C471.942 47.9258 471.627 47.9873 471.258 47.9873C471.112 47.9873 470.971 47.9736 470.834 47.9463C470.702 47.9235 470.577 47.8984 470.458 47.8711L470.452 46.6133C470.497 46.6178 470.552 46.6224 470.616 46.627C470.684 46.6315 470.739 46.6338 470.78 46.6338C471.053 46.6338 471.281 46.5996 471.463 46.5312C471.646 46.4674 471.794 46.3626 471.908 46.2168C472.026 46.071 472.126 45.875 472.208 45.6289L472.742 44.1934ZM471.607 37.6035L473.364 43.1406L473.658 44.877L472.516 45.1709L469.83 37.6035H471.607ZM478.695 37.6035H480.343L480.261 40.208C480.238 40.9645 480.152 41.6139 480.001 42.1562C479.851 42.6986 479.655 43.1566 479.413 43.5303C479.172 43.8994 478.898 44.2025 478.593 44.4395C478.292 44.6764 477.975 44.8633 477.643 45H477.157V43.7012L477.39 43.6875C477.586 43.4779 477.754 43.2682 477.896 43.0586C478.041 42.8444 478.165 42.6097 478.265 42.3545C478.365 42.0947 478.443 41.7917 478.497 41.4453C478.556 41.099 478.595 40.6865 478.613 40.208L478.695 37.6035ZM479.133 37.6035H483.822V45H482.182V38.998H479.133V37.6035ZM476.781 43.6875H484.834V47.2012H483.187V45H478.449V47.2012H476.775L476.781 43.6875ZM488.054 37.6035V45H486.399V37.6035H488.054ZM486.29 35.6621C486.29 35.4115 486.372 35.2041 486.536 35.04C486.705 34.8714 486.937 34.7871 487.233 34.7871C487.525 34.7871 487.755 34.8714 487.924 35.04C488.092 35.2041 488.177 35.4115 488.177 35.6621C488.177 35.9082 488.092 36.1133 487.924 36.2773C487.755 36.4414 487.525 36.5234 487.233 36.5234C486.937 36.5234 486.705 36.4414 486.536 36.2773C486.372 36.1133 486.29 35.9082 486.29 35.6621ZM491.697 41.3838H493.406L491.307 45H489.605L491.697 41.3838ZM492.9 37.6035H496.072V45H494.431V38.9023H492.9C492.59 38.9023 492.335 38.957 492.134 39.0664C491.934 39.1712 491.786 39.3102 491.69 39.4834C491.594 39.652 491.546 39.8252 491.546 40.0029C491.546 40.1807 491.59 40.3516 491.676 40.5156C491.768 40.6797 491.907 40.8141 492.093 40.9189C492.285 41.0238 492.524 41.0762 492.811 41.0762H494.985V42.2793H492.811C492.355 42.2793 491.948 42.2223 491.588 42.1084C491.227 41.9899 490.922 41.8281 490.671 41.623C490.421 41.4134 490.229 41.1696 490.097 40.8916C489.965 40.609 489.899 40.3014 489.899 39.9688C489.899 39.627 489.967 39.3125 490.104 39.0254C490.241 38.7383 490.437 38.4876 490.692 38.2734C490.952 38.0592 491.266 37.8952 491.635 37.7812C492.009 37.6628 492.431 37.6035 492.9 37.6035Z" fill="#212121"/>
<path d="M459.891 41.7598H461.6C461.545 42.4115 461.363 42.9925 461.053 43.5029C460.743 44.0088 460.308 44.4076 459.747 44.6992C459.187 44.9909 458.505 45.1367 457.703 45.1367C457.088 45.1367 456.534 45.0273 456.042 44.8086C455.55 44.5853 455.128 44.2708 454.777 43.8652C454.426 43.4551 454.158 42.9606 453.971 42.3818C453.788 41.8031 453.697 41.1559 453.697 40.4404V39.6133C453.697 38.8978 453.791 38.2507 453.978 37.6719C454.169 37.0931 454.442 36.5986 454.798 36.1885C455.153 35.7738 455.579 35.457 456.076 35.2383C456.577 35.0195 457.14 34.9102 457.765 34.9102C458.558 34.9102 459.228 35.056 459.774 35.3477C460.321 35.6393 460.745 36.0426 461.046 36.5576C461.351 37.0726 461.538 37.6628 461.606 38.3281H459.897C459.852 37.8997 459.752 37.5329 459.597 37.2275C459.446 36.9222 459.223 36.6898 458.927 36.5303C458.631 36.3662 458.243 36.2842 457.765 36.2842C457.373 36.2842 457.031 36.3571 456.739 36.5029C456.448 36.6488 456.204 36.863 456.008 37.1455C455.812 37.4281 455.664 37.7767 455.563 38.1914C455.468 38.6016 455.42 39.071 455.42 39.5996V40.4404C455.42 40.9417 455.463 41.3975 455.55 41.8076C455.641 42.2132 455.778 42.5618 455.96 42.8535C456.147 43.1452 456.384 43.3708 456.671 43.5303C456.958 43.6898 457.302 43.7695 457.703 43.7695C458.191 43.7695 458.585 43.6921 458.886 43.5371C459.191 43.3822 459.421 43.1566 459.576 42.8604C459.736 42.5596 459.84 42.1927 459.891 41.7598ZM466.706 37.6035V45H465.051V37.6035H466.706ZM469.133 37.6035V38.9023H462.666V37.6035H469.133ZM472.742 44.1934L474.751 37.6035H476.515L473.548 46.1279C473.48 46.3102 473.391 46.5085 473.282 46.7227C473.172 46.9368 473.029 47.1396 472.851 47.3311C472.678 47.527 472.461 47.6842 472.202 47.8027C471.942 47.9258 471.627 47.9873 471.258 47.9873C471.112 47.9873 470.971 47.9736 470.834 47.9463C470.702 47.9235 470.577 47.8984 470.458 47.8711L470.452 46.6133C470.497 46.6178 470.552 46.6224 470.616 46.627C470.684 46.6315 470.739 46.6338 470.78 46.6338C471.053 46.6338 471.281 46.5996 471.463 46.5312C471.646 46.4674 471.794 46.3626 471.908 46.2168C472.026 46.071 472.126 45.875 472.208 45.6289L472.742 44.1934ZM471.607 37.6035L473.364 43.1406L473.658 44.877L472.516 45.1709L469.83 37.6035H471.607ZM478.695 37.6035H480.343L480.261 40.208C480.238 40.9645 480.152 41.6139 480.001 42.1562C479.851 42.6986 479.655 43.1566 479.413 43.5303C479.172 43.8994 478.898 44.2025 478.593 44.4395C478.292 44.6764 477.975 44.8633 477.643 45H477.157V43.7012L477.39 43.6875C477.586 43.4779 477.754 43.2682 477.896 43.0586C478.041 42.8444 478.165 42.6097 478.265 42.3545C478.365 42.0947 478.443 41.7917 478.497 41.4453C478.556 41.099 478.595 40.6865 478.613 40.208L478.695 37.6035ZM479.133 37.6035H483.822V45H482.182V38.998H479.133V37.6035ZM476.781 43.6875H484.834V47.2012H483.187V45H478.449V47.2012H476.775L476.781 43.6875ZM488.054 37.6035V45H486.399V37.6035H488.054ZM486.29 35.6621C486.29 35.4115 486.372 35.2041 486.536 35.04C486.705 34.8714 486.937 34.7871 487.233 34.7871C487.525 34.7871 487.755 34.8714 487.924 35.04C488.092 35.2041 488.177 35.4115 488.177 35.6621C488.177 35.9082 488.092 36.1133 487.924 36.2773C487.755 36.4414 487.525 36.5234 487.233 36.5234C486.937 36.5234 486.705 36.4414 486.536 36.2773C486.372 36.1133 486.29 35.9082 486.29 35.6621ZM491.697 41.3838H493.406L491.307 45H489.605L491.697 41.3838ZM492.9 37.6035H496.072V45H494.431V38.9023H492.9C492.59 38.9023 492.335 38.957 492.134 39.0664C491.934 39.1712 491.786 39.3102 491.69 39.4834C491.594 39.652 491.546 39.8252 491.546 40.0029C491.546 40.1807 491.59 40.3516 491.676 40.5156C491.768 40.6797 491.907 40.8141 492.093 40.9189C492.285 41.0238 492.524 41.0762 492.811 41.0762H494.985V42.2793H492.811C492.355 42.2793 491.948 42.2223 491.588 42.1084C491.227 41.9899 490.922 41.8281 490.671 41.623C490.421 41.4134 490.229 41.1696 490.097 40.8916C489.965 40.609 489.899 40.3014 489.899 39.9688C489.899 39.627 489.967 39.3125 490.104 39.0254C490.241 38.7383 490.437 38.4876 490.692 38.2734C490.952 38.0592 491.266 37.8952 491.635 37.7812C492.009 37.6628 492.431 37.6035 492.9 37.6035Z" fill="#2196F3"/>
<path d="M556.887 35.0469V45H555.178V36.4141H550.755V45H549.046V35.0469H556.887ZM558.753 41.3838V41.2266C558.753 40.6934 558.83 40.1989 558.985 39.7432C559.14 39.2829 559.363 38.8841 559.655 38.5469C559.951 38.2051 560.311 37.9408 560.735 37.7539C561.163 37.5625 561.647 37.4668 562.184 37.4668C562.727 37.4668 563.21 37.5625 563.634 37.7539C564.062 37.9408 564.424 38.2051 564.72 38.5469C565.017 38.8841 565.242 39.2829 565.397 39.7432C565.552 40.1989 565.63 40.6934 565.63 41.2266V41.3838C565.63 41.917 565.552 42.4115 565.397 42.8672C565.242 43.3229 565.017 43.7217 564.72 44.0635C564.424 44.4007 564.064 44.665 563.64 44.8564C563.217 45.0433 562.736 45.1367 562.198 45.1367C561.656 45.1367 561.17 45.0433 560.742 44.8564C560.318 44.665 559.958 44.4007 559.662 44.0635C559.366 43.7217 559.14 43.3229 558.985 42.8672C558.83 42.4115 558.753 41.917 558.753 41.3838ZM560.4 41.2266V41.3838C560.4 41.7165 560.434 42.0309 560.503 42.3271C560.571 42.6234 560.678 42.8831 560.824 43.1064C560.97 43.3298 561.157 43.5052 561.384 43.6328C561.612 43.7604 561.884 43.8242 562.198 43.8242C562.503 43.8242 562.768 43.7604 562.991 43.6328C563.219 43.5052 563.406 43.3298 563.551 43.1064C563.697 42.8831 563.804 42.6234 563.873 42.3271C563.946 42.0309 563.982 41.7165 563.982 41.3838V41.2266C563.982 40.8984 563.946 40.5885 563.873 40.2969C563.804 40.0007 563.695 39.7386 563.545 39.5107C563.399 39.2829 563.212 39.1051 562.984 38.9775C562.761 38.8454 562.494 38.7793 562.184 38.7793C561.874 38.7793 561.606 38.8454 561.378 38.9775C561.154 39.1051 560.97 39.2829 560.824 39.5107C560.678 39.7386 560.571 40.0007 560.503 40.2969C560.434 40.5885 560.4 40.8984 560.4 41.2266ZM568.945 39.0254V47.8438H567.297V37.6035H568.815L568.945 39.0254ZM573.764 41.2334V41.377C573.764 41.9147 573.7 42.4137 573.573 42.874C573.45 43.3298 573.265 43.7285 573.019 44.0703C572.777 44.4076 572.479 44.6696 572.123 44.8564C571.768 45.0433 571.358 45.1367 570.893 45.1367C570.433 45.1367 570.029 45.0524 569.683 44.8838C569.341 44.7106 569.052 44.4668 568.815 44.1523C568.578 43.8379 568.386 43.4688 568.241 43.0449C568.099 42.6165 567.999 42.1471 567.94 41.6367V41.083C567.999 40.5407 568.099 40.0485 568.241 39.6064C568.386 39.1644 568.578 38.7839 568.815 38.4648C569.052 38.1458 569.341 37.8997 569.683 37.7266C570.025 37.5534 570.424 37.4668 570.879 37.4668C571.344 37.4668 571.757 37.5579 572.117 37.7402C572.477 37.918 572.78 38.1732 573.026 38.5059C573.272 38.834 573.456 39.2305 573.58 39.6953C573.703 40.1556 573.764 40.6683 573.764 41.2334ZM572.117 41.377V41.2334C572.117 40.8916 572.085 40.5749 572.021 40.2832C571.957 39.987 571.857 39.7272 571.72 39.5039C571.583 39.2806 571.408 39.1074 571.194 38.9844C570.984 38.8568 570.731 38.793 570.435 38.793C570.143 38.793 569.893 38.8431 569.683 38.9434C569.473 39.0391 569.298 39.1735 569.157 39.3467C569.015 39.5199 568.906 39.7227 568.829 39.9551C568.751 40.1829 568.696 40.4313 568.664 40.7002V42.0264C568.719 42.3545 568.813 42.6553 568.945 42.9287C569.077 43.2021 569.264 43.4209 569.505 43.585C569.751 43.7445 570.066 43.8242 570.449 43.8242C570.745 43.8242 570.998 43.7604 571.207 43.6328C571.417 43.5052 571.588 43.3298 571.72 43.1064C571.857 42.8786 571.957 42.6165 572.021 42.3203C572.085 42.0241 572.117 41.7096 572.117 41.377ZM578.426 37.6035V45H576.772V37.6035H578.426ZM580.853 37.6035V38.9023H574.386V37.6035H580.853ZM590.512 41.3906V41.5342C590.512 42.0583 590.452 42.5413 590.334 42.9834C590.22 43.4209 590.049 43.8014 589.821 44.125C589.593 44.4486 589.311 44.6992 588.974 44.877C588.641 45.0547 588.253 45.1436 587.811 45.1436C587.424 45.1436 587.087 45.0775 586.8 44.9453C586.513 44.8132 586.271 44.6286 586.075 44.3916C585.879 44.1501 585.722 43.8675 585.603 43.5439C585.485 43.2158 585.398 42.8558 585.344 42.4639V40.3242C585.398 39.9049 585.483 39.5221 585.597 39.1758C585.715 38.8249 585.872 38.5218 586.068 38.2666C586.269 38.0114 586.51 37.8154 586.793 37.6787C587.075 37.5374 587.41 37.4668 587.798 37.4668C588.153 37.4668 588.474 37.5306 588.762 37.6582C589.049 37.7812 589.302 37.959 589.52 38.1914C589.739 38.4193 589.921 38.695 590.067 39.0186C590.213 39.3376 590.322 39.6976 590.395 40.0986C590.473 40.4997 590.512 40.9303 590.512 41.3906ZM588.864 41.5342V41.3906C588.864 41.1035 588.846 40.8301 588.809 40.5703C588.773 40.3105 588.716 40.0736 588.639 39.8594C588.566 39.6406 588.47 39.4515 588.351 39.292C588.233 39.1279 588.089 39.0026 587.921 38.916C587.757 38.8249 587.565 38.7793 587.347 38.7793C587.05 38.7793 586.804 38.8294 586.608 38.9297C586.417 39.0254 586.271 39.1621 586.171 39.3398C586.075 39.513 586.014 39.7135 585.986 39.9414V42.8535C586.018 43.0449 586.084 43.2135 586.184 43.3594C586.289 43.5052 586.437 43.6214 586.629 43.708C586.82 43.79 587.064 43.8311 587.36 43.8311C587.634 43.8311 587.864 43.7741 588.051 43.6602C588.242 43.5417 588.397 43.3776 588.516 43.168C588.639 42.9583 588.727 42.7145 588.782 42.4365C588.837 42.1585 588.864 41.8577 588.864 41.5342ZM581.447 41.5342V41.3906C581.447 40.9303 581.484 40.4997 581.557 40.0986C581.629 39.6976 581.739 39.3376 581.885 39.0186C582.035 38.695 582.22 38.4193 582.438 38.1914C582.657 37.959 582.91 37.7812 583.197 37.6582C583.484 37.5306 583.806 37.4668 584.161 37.4668C584.544 37.4668 584.874 37.5374 585.152 37.6787C585.43 37.8154 585.665 38.0114 585.856 38.2666C586.052 38.5218 586.207 38.8249 586.321 39.1758C586.44 39.5221 586.526 39.9049 586.581 40.3242V42.3818C586.531 42.7829 586.446 43.152 586.328 43.4893C586.21 43.8265 586.055 44.1182 585.863 44.3643C585.672 44.6104 585.435 44.8018 585.152 44.9385C584.87 45.0752 584.535 45.1436 584.147 45.1436C583.71 45.1436 583.322 45.0547 582.985 44.877C582.648 44.6992 582.365 44.4486 582.138 44.125C581.91 43.8014 581.737 43.4209 581.618 42.9834C581.504 42.5413 581.447 42.0583 581.447 41.5342ZM583.095 41.3906V41.5342C583.095 41.8577 583.12 42.1585 583.17 42.4365C583.224 42.7145 583.309 42.9583 583.423 43.168C583.537 43.373 583.687 43.5348 583.874 43.6533C584.061 43.7718 584.291 43.8311 584.564 43.8311C584.865 43.8311 585.111 43.7855 585.303 43.6943C585.494 43.6032 585.64 43.4779 585.74 43.3184C585.845 43.1589 585.913 42.9766 585.945 42.7715V39.9414C585.918 39.7135 585.854 39.513 585.754 39.3398C585.654 39.1621 585.508 39.0254 585.316 38.9297C585.125 38.8294 584.879 38.7793 584.578 38.7793C584.305 38.7793 584.072 38.8477 583.881 38.9844C583.694 39.1211 583.541 39.3102 583.423 39.5518C583.309 39.7887 583.224 40.0667 583.17 40.3857C583.12 40.7002 583.095 41.0352 583.095 41.3906ZM585.118 47.8438V34.5H586.772V47.8438H585.118ZM591.892 41.3838V41.2266C591.892 40.6934 591.97 40.1989 592.125 39.7432C592.28 39.2829 592.503 38.8841 592.795 38.5469C593.091 38.2051 593.451 37.9408 593.875 37.7539C594.303 37.5625 594.786 37.4668 595.324 37.4668C595.866 37.4668 596.349 37.5625 596.773 37.7539C597.201 37.9408 597.564 38.2051 597.86 38.5469C598.156 38.8841 598.382 39.2829 598.537 39.7432C598.692 40.1989 598.769 40.6934 598.769 41.2266V41.3838C598.769 41.917 598.692 42.4115 598.537 42.8672C598.382 43.3229 598.156 43.7217 597.86 44.0635C597.564 44.4007 597.204 44.665 596.78 44.8564C596.356 45.0433 595.875 45.1367 595.338 45.1367C594.795 45.1367 594.31 45.0433 593.881 44.8564C593.458 44.665 593.098 44.4007 592.801 44.0635C592.505 43.7217 592.28 43.3229 592.125 42.8672C591.97 42.4115 591.892 41.917 591.892 41.3838ZM593.54 41.2266V41.3838C593.54 41.7165 593.574 42.0309 593.642 42.3271C593.711 42.6234 593.818 42.8831 593.963 43.1064C594.109 43.3298 594.296 43.5052 594.524 43.6328C594.752 43.7604 595.023 43.8242 595.338 43.8242C595.643 43.8242 595.907 43.7604 596.13 43.6328C596.358 43.5052 596.545 43.3298 596.691 43.1064C596.837 42.8831 596.944 42.6234 597.012 42.3271C597.085 42.0309 597.122 41.7165 597.122 41.3838V41.2266C597.122 40.8984 597.085 40.5885 597.012 40.2969C596.944 40.0007 596.835 39.7386 596.684 39.5107C596.538 39.2829 596.351 39.1051 596.124 38.9775C595.9 38.8454 595.634 38.7793 595.324 38.7793C595.014 38.7793 594.745 38.8454 594.517 38.9775C594.294 39.1051 594.109 39.2829 593.963 39.5107C593.818 39.7386 593.711 40.0007 593.642 40.2969C593.574 40.5885 593.54 40.8984 593.54 41.2266ZM605.29 37.6035V38.916H601.681V37.6035H605.29ZM606.582 37.6035V45H604.935V37.6035H606.582ZM601.278 37.6035H602.905L602.706 41.2607C602.679 41.8031 602.624 42.2816 602.542 42.6963C602.465 43.1064 602.36 43.4596 602.228 43.7559C602.096 44.0475 601.934 44.2845 601.743 44.4668C601.551 44.6491 601.328 44.7835 601.073 44.8701C600.817 44.9567 600.53 45 600.211 45H599.699L599.692 43.6465L599.951 43.626C600.12 43.6123 600.266 43.569 600.389 43.4961C600.512 43.4186 600.617 43.3092 600.703 43.168C600.795 43.0267 600.868 42.8444 600.922 42.6211C600.981 42.3978 601.027 42.1335 601.059 41.8281C601.095 41.5228 601.123 41.1673 601.141 40.7617L601.278 37.6035ZM610.376 37.6035V45H608.722V37.6035H610.376ZM608.612 35.6621C608.612 35.4115 608.694 35.2041 608.858 35.04C609.027 34.8714 609.259 34.7871 609.556 34.7871C609.847 34.7871 610.078 34.8714 610.246 35.04C610.415 35.2041 610.499 35.4115 610.499 35.6621C610.499 35.9082 610.415 36.1133 610.246 36.2773C610.078 36.4414 609.847 36.5234 609.556 36.5234C609.259 36.5234 609.027 36.4414 608.858 36.2773C608.694 36.1133 608.612 35.9082 608.612 35.6621ZM612.146 41.3838V41.2266C612.146 40.6934 612.224 40.1989 612.379 39.7432C612.534 39.2829 612.757 38.8841 613.049 38.5469C613.345 38.2051 613.705 37.9408 614.129 37.7539C614.557 37.5625 615.04 37.4668 615.578 37.4668C616.12 37.4668 616.603 37.5625 617.027 37.7539C617.455 37.9408 617.818 38.2051 618.114 38.5469C618.41 38.8841 618.636 39.2829 618.791 39.7432C618.946 40.1989 619.023 40.6934 619.023 41.2266V41.3838C619.023 41.917 618.946 42.4115 618.791 42.8672C618.636 43.3229 618.41 43.7217 618.114 44.0635C617.818 44.4007 617.458 44.665 617.034 44.8564C616.61 45.0433 616.129 45.1367 615.592 45.1367C615.049 45.1367 614.564 45.0433 614.136 44.8564C613.712 44.665 613.352 44.4007 613.055 44.0635C612.759 43.7217 612.534 43.3229 612.379 42.8672C612.224 42.4115 612.146 41.917 612.146 41.3838ZM613.794 41.2266V41.3838C613.794 41.7165 613.828 42.0309 613.896 42.3271C613.965 42.6234 614.072 42.8831 614.218 43.1064C614.363 43.3298 614.55 43.5052 614.778 43.6328C615.006 43.7604 615.277 43.8242 615.592 43.8242C615.897 43.8242 616.161 43.7604 616.385 43.6328C616.612 43.5052 616.799 43.3298 616.945 43.1064C617.091 42.8831 617.198 42.6234 617.266 42.3271C617.339 42.0309 617.376 41.7165 617.376 41.3838V41.2266C617.376 40.8984 617.339 40.5885 617.266 40.2969C617.198 40.0007 617.089 39.7386 616.938 39.5107C616.792 39.2829 616.606 39.1051 616.378 38.9775C616.154 38.8454 615.888 38.7793 615.578 38.7793C615.268 38.7793 614.999 38.8454 614.771 38.9775C614.548 39.1051 614.363 39.2829 614.218 39.5107C614.072 39.7386 613.965 40.0007 613.896 40.2969C613.828 40.5885 613.794 40.8984 613.794 41.2266Z" fill="#212121"/>
<path d="M672.755 35.0469V45H671.046V35.0469H672.755ZM678.743 35.0469L674.696 40.7207H672.27L672.037 39.2305H673.746L676.645 35.0469H678.743ZM676.993 45L673.773 40.4609L674.881 39.1416L679.051 45H676.993ZM679.645 41.3838V41.2266C679.645 40.6934 679.723 40.1989 679.878 39.7432C680.033 39.2829 680.256 38.8841 680.548 38.5469C680.844 38.2051 681.204 37.9408 681.628 37.7539C682.056 37.5625 682.539 37.4668 683.077 37.4668C683.619 37.4668 684.102 37.5625 684.526 37.7539C684.954 37.9408 685.317 38.2051 685.613 38.5469C685.909 38.8841 686.135 39.2829 686.29 39.7432C686.445 40.1989 686.522 40.6934 686.522 41.2266V41.3838C686.522 41.917 686.445 42.4115 686.29 42.8672C686.135 43.3229 685.909 43.7217 685.613 44.0635C685.317 44.4007 684.957 44.665 684.533 44.8564C684.109 45.0433 683.628 45.1367 683.091 45.1367C682.548 45.1367 682.063 45.0433 681.634 44.8564C681.211 44.665 680.851 44.4007 680.554 44.0635C680.258 43.7217 680.033 43.3229 679.878 42.8672C679.723 42.4115 679.645 41.917 679.645 41.3838ZM681.293 41.2266V41.3838C681.293 41.7165 681.327 42.0309 681.395 42.3271C681.464 42.6234 681.571 42.8831 681.717 43.1064C681.862 43.3298 682.049 43.5052 682.277 43.6328C682.505 43.7604 682.776 43.8242 683.091 43.8242C683.396 43.8242 683.66 43.7604 683.884 43.6328C684.111 43.5052 684.298 43.3298 684.444 43.1064C684.59 42.8831 684.697 42.6234 684.765 42.3271C684.838 42.0309 684.875 41.7165 684.875 41.3838V41.2266C684.875 40.8984 684.838 40.5885 684.765 40.2969C684.697 40.0007 684.588 39.7386 684.437 39.5107C684.291 39.2829 684.105 39.1051 683.877 38.9775C683.653 38.8454 683.387 38.7793 683.077 38.7793C682.767 38.7793 682.498 38.8454 682.27 38.9775C682.047 39.1051 681.862 39.2829 681.717 39.5107C681.571 39.7386 681.464 40.0007 681.395 40.2969C681.327 40.5885 681.293 40.8984 681.293 41.2266ZM693.235 40.6934V41.9922H689.407V40.6934H693.235ZM689.885 37.6035V45H688.238V37.6035H689.885ZM694.424 37.6035V45H692.777V37.6035H694.424ZM699.893 37.6035V45H698.238V37.6035H699.893ZM702.319 37.6035V38.9023H695.853V37.6035H702.319ZM707.761 43.5166V39.9893C707.761 39.7249 707.713 39.4971 707.617 39.3057C707.521 39.1143 707.376 38.9661 707.18 38.8613C706.988 38.7565 706.747 38.7041 706.455 38.7041C706.186 38.7041 705.954 38.7497 705.758 38.8408C705.562 38.932 705.409 39.055 705.3 39.21C705.19 39.3649 705.136 39.5404 705.136 39.7363H703.495C703.495 39.4447 703.566 39.1621 703.707 38.8887C703.848 38.6152 704.053 38.3714 704.322 38.1572C704.591 37.943 704.912 37.7744 705.286 37.6514C705.66 37.5283 706.079 37.4668 706.544 37.4668C707.1 37.4668 707.592 37.5602 708.02 37.7471C708.453 37.9339 708.793 38.2165 709.039 38.5947C709.29 38.9684 709.415 39.4378 709.415 40.0029V43.291C709.415 43.6283 709.438 43.9313 709.483 44.2002C709.533 44.4645 709.604 44.6947 709.695 44.8906V45H708.007C707.929 44.8223 707.868 44.5967 707.822 44.3232C707.781 44.0452 707.761 43.7764 707.761 43.5166ZM708 40.502L708.014 41.5205H706.831C706.526 41.5205 706.257 41.5501 706.024 41.6094C705.792 41.6641 705.598 41.7461 705.443 41.8555C705.288 41.9648 705.172 42.097 705.095 42.252C705.017 42.4069 704.978 42.5824 704.978 42.7783C704.978 42.9743 705.024 43.1543 705.115 43.3184C705.206 43.4779 705.338 43.6032 705.512 43.6943C705.689 43.7855 705.904 43.8311 706.154 43.8311C706.491 43.8311 706.785 43.7627 707.036 43.626C707.291 43.4847 707.492 43.3138 707.638 43.1133C707.783 42.9082 707.861 42.7145 707.87 42.5322L708.403 43.2637C708.349 43.4505 708.255 43.651 708.123 43.8652C707.991 44.0794 707.818 44.2845 707.603 44.4805C707.394 44.6719 707.141 44.8291 706.845 44.9521C706.553 45.0752 706.216 45.1367 705.833 45.1367C705.35 45.1367 704.919 45.041 704.541 44.8496C704.163 44.6536 703.866 44.3916 703.652 44.0635C703.438 43.7308 703.331 43.3548 703.331 42.9355C703.331 42.5436 703.404 42.1973 703.55 41.8965C703.7 41.5911 703.919 41.3359 704.206 41.1309C704.498 40.9258 704.853 40.7708 705.272 40.666C705.692 40.5566 706.17 40.502 706.708 40.502H708ZM713.195 37.6035V45H711.547V37.6035H713.195ZM718.021 37.6035L714.692 42.0537H712.812L712.593 40.5635H713.967L715.963 37.6035H718.021ZM716.093 45L713.865 41.7734L715.164 40.8369L718.26 45H716.093ZM722.868 37.6035V45H721.213V37.6035H722.868ZM725.294 37.6035V38.9023H718.827V37.6035H725.294ZM728.377 42.5938L731.282 37.6035H732.93V45H731.282V40.0029L728.377 45H726.73V37.6035H728.377V42.5938Z" fill="#212121"/>
<path d="M1080.62 45H1078.96V37.6035H1080.62V45ZM1078.85 35.6826C1078.85 35.4274 1078.93 35.2155 1079.09 35.0469C1079.26 34.8783 1079.49 34.7939 1079.79 34.7939C1080.09 34.7939 1080.32 34.8783 1080.49 35.0469C1080.65 35.2155 1080.73 35.4274 1080.73 35.6826C1080.73 35.9333 1080.65 36.1429 1080.49 36.3115C1080.32 36.4756 1080.09 36.5576 1079.79 36.5576C1079.49 36.5576 1079.26 36.4756 1079.09 36.3115C1078.93 36.1429 1078.85 35.9333 1078.85 35.6826ZM1084.25 37.6035L1084.3 38.458C1084.85 37.7972 1085.57 37.4668 1086.46 37.4668C1088 37.4668 1088.78 38.3486 1088.81 40.1123V45H1087.15V40.208C1087.15 39.7386 1087.04 39.3923 1086.84 39.1689C1086.64 38.9411 1086.31 38.8271 1085.85 38.8271C1085.18 38.8271 1084.68 39.1302 1084.35 39.7363V45H1082.69V37.6035H1084.25ZM1091.37 45V38.834H1090.24V37.6035H1091.37V36.9268C1091.37 36.1064 1091.6 35.473 1092.05 35.0264C1092.51 34.5798 1093.15 34.3564 1093.97 34.3564C1094.26 34.3564 1094.57 34.3975 1094.9 34.4795L1094.86 35.7783C1094.67 35.7419 1094.46 35.7236 1094.22 35.7236C1093.43 35.7236 1093.03 36.1315 1093.03 36.9473V37.6035H1094.54V38.834H1093.03V45H1091.37ZM1095.72 41.2334C1095.72 40.5088 1095.86 39.8571 1096.15 39.2783C1096.44 38.695 1096.84 38.2484 1097.36 37.9385C1097.88 37.624 1098.48 37.4668 1099.15 37.4668C1100.15 37.4668 1100.96 37.7881 1101.58 38.4307C1102.2 39.0732 1102.54 39.9255 1102.59 40.9873L1102.59 41.377C1102.59 42.1061 1102.45 42.7578 1102.17 43.332C1101.89 43.9062 1101.49 44.3506 1100.97 44.665C1100.45 44.9795 1099.85 45.1367 1099.16 45.1367C1098.12 45.1367 1097.28 44.7904 1096.65 44.0977C1096.03 43.4004 1095.72 42.473 1095.72 41.3154V41.2334ZM1097.38 41.377C1097.38 42.138 1097.54 42.735 1097.85 43.168C1098.17 43.5964 1098.6 43.8105 1099.16 43.8105C1099.72 43.8105 1100.16 43.5918 1100.47 43.1543C1100.78 42.7168 1100.94 42.0765 1100.94 41.2334C1100.94 40.486 1100.78 39.8936 1100.46 39.4561C1100.14 39.0186 1099.7 38.7998 1099.15 38.7998C1098.61 38.7998 1098.18 39.0163 1097.86 39.4492C1097.54 39.8776 1097.38 40.5202 1097.38 41.377ZM1115.33 41.459C1115.28 42.5983 1115 43.4984 1114.49 44.1592C1113.98 44.8154 1113.3 45.1436 1112.43 45.1436C1111.61 45.1436 1111.06 44.7926 1110.78 44.0908C1110.54 44.4372 1110.27 44.6969 1109.96 44.8701C1109.66 45.0433 1109.34 45.1299 1109 45.1299C1108.33 45.1299 1107.83 44.8564 1107.48 44.3096C1107.14 43.7627 1107.01 43.0312 1107.09 42.1152C1107.17 41.3724 1107.35 40.7025 1107.63 40.1055C1107.92 39.5085 1108.29 39.0482 1108.73 38.7246C1109.18 38.3965 1109.65 38.2324 1110.16 38.2324C1110.54 38.2324 1110.88 38.2803 1111.17 38.376C1111.46 38.4717 1111.81 38.6699 1112.21 38.9707L1111.85 42.8193C1111.76 43.7217 1112.02 44.1729 1112.63 44.1729C1113.09 44.1729 1113.48 43.9245 1113.77 43.4277C1114.07 42.9264 1114.24 42.2793 1114.26 41.4863C1114.34 39.8047 1114.02 38.5173 1113.29 37.624C1112.56 36.7308 1111.47 36.2842 1110.01 36.2842C1109.12 36.2842 1108.33 36.5075 1107.63 36.9541C1106.94 37.4007 1106.4 38.0479 1105.99 38.8955C1105.59 39.7386 1105.36 40.7002 1105.32 41.7803C1105.27 42.8786 1105.4 43.8265 1105.71 44.624C1106.03 45.417 1106.52 46.0208 1107.17 46.4355C1107.82 46.8503 1108.62 47.0576 1109.57 47.0576C1109.95 47.0576 1110.35 47.012 1110.76 46.9209C1111.18 46.8298 1111.54 46.7067 1111.83 46.5518L1112.09 47.4883C1111.81 47.6706 1111.44 47.8164 1110.96 47.9258C1110.49 48.0397 1110.02 48.0967 1109.54 48.0967C1108.38 48.0967 1107.39 47.8506 1106.56 47.3584C1105.73 46.8708 1105.11 46.1621 1104.69 45.2324C1104.26 44.2708 1104.08 43.1201 1104.13 41.7803C1104.18 40.5316 1104.46 39.4105 1104.97 38.417C1105.47 37.4189 1106.16 36.6442 1107.04 36.0928C1107.92 35.5413 1108.92 35.2656 1110.04 35.2656C1111.17 35.2656 1112.15 35.5163 1112.96 36.0176C1113.79 36.5143 1114.4 37.2321 1114.8 38.1709C1115.21 39.1051 1115.38 40.2012 1115.33 41.459ZM1108.43 42.1152C1108.37 42.735 1108.43 43.2067 1108.6 43.5303C1108.77 43.8493 1109.03 44.0088 1109.4 44.0088C1109.65 44.0088 1109.88 43.9017 1110.1 43.6875C1110.32 43.4688 1110.5 43.1702 1110.63 42.792L1110.94 39.4219C1110.71 39.3353 1110.49 39.292 1110.28 39.292C1109.77 39.292 1109.36 39.5312 1109.04 40.0098C1108.72 40.4837 1108.52 41.1855 1108.43 42.1152ZM1116.77 41.2471C1116.77 40.1077 1117.04 39.194 1117.57 38.5059C1118.09 37.8132 1118.8 37.4668 1119.69 37.4668C1120.47 37.4668 1121.11 37.7402 1121.59 38.2871V34.5H1123.25V45H1121.75L1121.67 44.2344C1121.17 44.8359 1120.51 45.1367 1119.68 45.1367C1118.81 45.1367 1118.11 44.7881 1117.57 44.0908C1117.04 43.3936 1116.77 42.4456 1116.77 41.2471ZM1118.43 41.3906C1118.43 42.1426 1118.58 42.7305 1118.86 43.1543C1119.16 43.5736 1119.57 43.7832 1120.1 43.7832C1120.78 43.7832 1121.28 43.4801 1121.59 42.874V39.7158C1121.29 39.1234 1120.79 38.8271 1120.11 38.8271C1119.58 38.8271 1119.16 39.0413 1118.87 39.4697C1118.58 39.8936 1118.43 40.5339 1118.43 41.3906ZM1128.52 45.1367C1127.47 45.1367 1126.62 44.8063 1125.96 44.1455C1125.31 43.4801 1124.98 42.596 1124.98 41.4932V41.2881C1124.98 40.5498 1125.12 39.8913 1125.41 39.3125C1125.69 38.7292 1126.09 38.2757 1126.61 37.9521C1127.12 37.6286 1127.7 37.4668 1128.33 37.4668C1129.34 37.4668 1130.12 37.7881 1130.66 38.4307C1131.21 39.0732 1131.49 39.9824 1131.49 41.1582V41.8281H1126.66C1126.71 42.4388 1126.91 42.9219 1127.26 43.2773C1127.62 43.6328 1128.08 43.8105 1128.62 43.8105C1129.38 43.8105 1130 43.5029 1130.48 42.8877L1131.37 43.7422C1131.08 44.1842 1130.68 44.5283 1130.18 44.7744C1129.69 45.016 1129.14 45.1367 1128.52 45.1367ZM1128.32 38.7998C1127.87 38.7998 1127.5 38.9593 1127.22 39.2783C1126.94 39.5973 1126.76 40.0417 1126.68 40.6113H1129.85V40.4883C1129.81 39.9323 1129.66 39.513 1129.4 39.2305C1129.14 38.9434 1128.78 38.7998 1128.32 38.7998ZM1135.58 42.8945L1137.14 37.6035H1138.86L1136.29 45H1134.85L1132.27 37.6035H1133.99L1135.58 42.8945ZM1144.33 42.9902C1144.33 42.694 1144.2 42.4684 1143.96 42.3135C1143.72 42.1585 1143.31 42.0218 1142.75 41.9033C1142.18 41.7848 1141.71 41.6344 1141.33 41.4521C1140.5 41.0511 1140.09 40.4701 1140.09 39.709C1140.09 39.071 1140.36 38.5378 1140.9 38.1094C1141.43 37.681 1142.12 37.4668 1142.95 37.4668C1143.83 37.4668 1144.54 37.6855 1145.09 38.123C1145.63 38.5605 1145.91 39.1279 1145.91 39.8252H1144.24C1144.24 39.5062 1144.13 39.2419 1143.89 39.0322C1143.65 38.818 1143.34 38.7109 1142.95 38.7109C1142.58 38.7109 1142.28 38.7952 1142.05 38.9639C1141.82 39.1325 1141.71 39.3581 1141.71 39.6406C1141.71 39.8958 1141.82 40.0941 1142.03 40.2354C1142.24 40.3766 1142.68 40.5202 1143.33 40.666C1143.98 40.8073 1144.49 40.9782 1144.86 41.1787C1145.23 41.3747 1145.51 41.6117 1145.69 41.8896C1145.87 42.1676 1145.96 42.5049 1145.96 42.9014C1145.96 43.5667 1145.68 44.1068 1145.13 44.5215C1144.58 44.9316 1143.86 45.1367 1142.97 45.1367C1142.36 45.1367 1141.82 45.0273 1141.35 44.8086C1140.87 44.5898 1140.5 44.2891 1140.24 43.9062C1139.97 43.5234 1139.84 43.111 1139.84 42.6689H1141.46C1141.48 43.0609 1141.63 43.3639 1141.9 43.5781C1142.17 43.7878 1142.54 43.8926 1142.99 43.8926C1143.42 43.8926 1143.76 43.8105 1143.99 43.6465C1144.21 43.4779 1144.33 43.2591 1144.33 42.9902ZM1149.77 35.8057V37.6035H1151.08V38.834H1149.77V42.9629C1149.77 43.2454 1149.83 43.4505 1149.94 43.5781C1150.05 43.7012 1150.25 43.7627 1150.54 43.7627C1150.73 43.7627 1150.93 43.7399 1151.12 43.6943V44.9795C1150.74 45.0843 1150.38 45.1367 1150.03 45.1367C1148.75 45.1367 1148.11 44.4326 1148.11 43.0244V38.834H1146.9V37.6035H1148.11V35.8057H1149.77ZM1157.12 44.2754C1156.63 44.8496 1155.94 45.1367 1155.04 45.1367C1154.24 45.1367 1153.63 44.902 1153.21 44.4326C1152.8 43.9632 1152.6 43.2842 1152.6 42.3955V37.6035H1154.26V42.375C1154.26 43.3138 1154.65 43.7832 1155.43 43.7832C1156.23 43.7832 1156.78 43.4938 1157.06 42.915V37.6035H1158.72V45H1157.16L1157.12 44.2754ZM1160.38 41.2471C1160.38 40.1077 1160.65 39.194 1161.18 38.5059C1161.71 37.8132 1162.41 37.4668 1163.3 37.4668C1164.09 37.4668 1164.72 37.7402 1165.2 38.2871V34.5H1166.86V45H1165.36L1165.28 44.2344C1164.78 44.8359 1164.12 45.1367 1163.29 45.1367C1162.42 45.1367 1161.72 44.7881 1161.18 44.0908C1160.65 43.3936 1160.38 42.4456 1160.38 41.2471ZM1162.04 41.3906C1162.04 42.1426 1162.19 42.7305 1162.48 43.1543C1162.77 43.5736 1163.18 43.7832 1163.71 43.7832C1164.39 43.7832 1164.89 43.4801 1165.2 42.874V39.7158C1164.9 39.1234 1164.41 38.8271 1163.73 38.8271C1163.19 38.8271 1162.77 39.0413 1162.48 39.4697C1162.19 39.8936 1162.04 40.5339 1162.04 41.3906ZM1170.64 45H1168.98V37.6035H1170.64V45ZM1168.88 35.6826C1168.88 35.4274 1168.96 35.2155 1169.12 35.0469C1169.28 34.8783 1169.52 34.7939 1169.82 34.7939C1170.12 34.7939 1170.35 34.8783 1170.51 35.0469C1170.68 35.2155 1170.76 35.4274 1170.76 35.6826C1170.76 35.9333 1170.68 36.1429 1170.51 36.3115C1170.35 36.4756 1170.12 36.5576 1169.82 36.5576C1169.52 36.5576 1169.28 36.4756 1169.12 36.3115C1168.96 36.1429 1168.88 35.9333 1168.88 35.6826ZM1172.43 41.2334C1172.43 40.5088 1172.57 39.8571 1172.86 39.2783C1173.15 38.695 1173.55 38.2484 1174.07 37.9385C1174.59 37.624 1175.19 37.4668 1175.86 37.4668C1176.86 37.4668 1177.67 37.7881 1178.29 38.4307C1178.91 39.0732 1179.25 39.9255 1179.3 40.9873L1179.31 41.377C1179.31 42.1061 1179.16 42.7578 1178.88 43.332C1178.6 43.9062 1178.2 44.3506 1177.68 44.665C1177.16 44.9795 1176.56 45.1367 1175.87 45.1367C1174.83 45.1367 1173.99 44.7904 1173.36 44.0977C1172.74 43.4004 1172.43 42.473 1172.43 41.3154V41.2334ZM1174.09 41.377C1174.09 42.138 1174.25 42.735 1174.56 43.168C1174.88 43.5964 1175.31 43.8105 1175.87 43.8105C1176.43 43.8105 1176.87 43.5918 1177.18 43.1543C1177.49 42.7168 1177.65 42.0765 1177.65 41.2334C1177.65 40.486 1177.49 39.8936 1177.17 39.4561C1176.85 39.0186 1176.41 38.7998 1175.86 38.7998C1175.32 38.7998 1174.89 39.0163 1174.57 39.4492C1174.25 39.8776 1174.09 40.5202 1174.09 41.377ZM1182.03 43.25C1182.34 43.25 1182.57 43.3389 1182.74 43.5166C1182.91 43.6898 1183 43.9085 1183 44.1729C1183 44.4326 1182.91 44.6491 1182.74 44.8223C1182.57 44.9909 1182.34 45.0752 1182.03 45.0752C1181.73 45.0752 1181.49 44.9909 1181.32 44.8223C1181.15 44.6536 1181.06 44.4372 1181.06 44.1729C1181.06 43.9085 1181.15 43.6898 1181.31 43.5166C1181.48 43.3389 1181.72 43.25 1182.03 43.25ZM1188.22 43.8105C1188.63 43.8105 1188.98 43.6898 1189.25 43.4482C1189.52 43.2067 1189.67 42.9082 1189.69 42.5527H1191.25C1191.24 43.013 1191.09 43.4437 1190.82 43.8447C1190.55 44.2412 1190.19 44.5557 1189.73 44.7881C1189.27 45.0205 1188.77 45.1367 1188.24 45.1367C1187.2 45.1367 1186.38 44.8018 1185.78 44.1318C1185.17 43.4619 1184.87 42.5368 1184.87 41.3564V41.1855C1184.87 40.0599 1185.17 39.1598 1185.77 38.4854C1186.37 37.8063 1187.19 37.4668 1188.23 37.4668C1189.11 37.4668 1189.83 37.7243 1190.38 38.2393C1190.93 38.7497 1191.23 39.4219 1191.25 40.2559H1189.69C1189.67 39.832 1189.52 39.4834 1189.25 39.21C1188.98 38.9365 1188.64 38.7998 1188.22 38.7998C1187.68 38.7998 1187.27 38.9958 1186.97 39.3877C1186.68 39.7751 1186.53 40.3652 1186.53 41.1582V41.4248C1186.53 42.2269 1186.67 42.8262 1186.96 43.2227C1187.25 43.6146 1187.67 43.8105 1188.22 43.8105ZM1192.48 41.2334C1192.48 40.5088 1192.62 39.8571 1192.91 39.2783C1193.19 38.695 1193.6 38.2484 1194.12 37.9385C1194.64 37.624 1195.23 37.4668 1195.91 37.4668C1196.91 37.4668 1197.72 37.7881 1198.34 38.4307C1198.96 39.0732 1199.3 39.9255 1199.35 40.9873L1199.35 41.377C1199.35 42.1061 1199.21 42.7578 1198.93 43.332C1198.65 43.9062 1198.25 44.3506 1197.73 44.665C1197.21 44.9795 1196.61 45.1367 1195.92 45.1367C1194.88 45.1367 1194.04 44.7904 1193.41 44.0977C1192.79 43.4004 1192.48 42.473 1192.48 41.3154V41.2334ZM1194.14 41.377C1194.14 42.138 1194.3 42.735 1194.61 43.168C1194.92 43.5964 1195.36 43.8105 1195.92 43.8105C1196.48 43.8105 1196.92 43.5918 1197.23 43.1543C1197.54 42.7168 1197.7 42.0765 1197.7 41.2334C1197.7 40.486 1197.54 39.8936 1197.21 39.4561C1196.9 39.0186 1196.46 38.7998 1195.91 38.7998C1195.37 38.7998 1194.94 39.0163 1194.62 39.4492C1194.3 39.8776 1194.14 40.5202 1194.14 41.377ZM1202.6 37.6035L1202.65 38.376C1203.17 37.7699 1203.88 37.4668 1204.78 37.4668C1205.77 37.4668 1206.45 37.8451 1206.81 38.6016C1207.35 37.8451 1208.11 37.4668 1209.08 37.4668C1209.9 37.4668 1210.5 37.6924 1210.9 38.1436C1211.3 38.5947 1211.51 39.2601 1211.51 40.1396V45H1209.85V40.1875C1209.85 39.7181 1209.75 39.374 1209.55 39.1553C1209.34 38.9365 1209 38.8271 1208.53 38.8271C1208.15 38.8271 1207.84 38.9297 1207.6 39.1348C1207.36 39.3353 1207.19 39.5996 1207.1 39.9277L1207.11 45H1205.44V40.1328C1205.42 39.2624 1204.98 38.8271 1204.11 38.8271C1203.45 38.8271 1202.97 39.0983 1202.7 39.6406V45H1201.04V37.6035H1202.6Z" fill="#757575"/>
<path d="M1080.61 37.6035V45H1078.96V37.6035H1080.61ZM1078.85 35.6621C1078.85 35.4115 1078.93 35.2041 1079.09 35.04C1079.26 34.8714 1079.49 34.7871 1079.79 34.7871C1080.08 34.7871 1080.31 34.8714 1080.48 35.04C1080.65 35.2041 1080.73 35.4115 1080.73 35.6621C1080.73 35.9082 1080.65 36.1133 1080.48 36.2773C1080.31 36.4414 1080.08 36.5234 1079.79 36.5234C1079.49 36.5234 1079.26 36.4414 1079.09 36.2773C1078.93 36.1133 1078.85 35.9082 1078.85 35.6621ZM1084.33 39.1826V45H1082.68V37.6035H1084.23L1084.33 39.1826ZM1084.04 41.0283L1083.5 41.0215C1083.51 40.4974 1083.58 40.0166 1083.72 39.5791C1083.87 39.1416 1084.07 38.7656 1084.32 38.4512C1084.58 38.1367 1084.89 37.8952 1085.25 37.7266C1085.61 37.5534 1086.01 37.4668 1086.46 37.4668C1086.81 37.4668 1087.13 37.5169 1087.42 37.6172C1087.71 37.7129 1087.96 37.8701 1088.16 38.0889C1088.37 38.3076 1088.53 38.5924 1088.64 38.9434C1088.75 39.2897 1088.81 39.7158 1088.81 40.2217V45H1087.15V40.2148C1087.15 39.8594 1087.1 39.5791 1087 39.374C1086.9 39.1644 1086.75 39.0163 1086.55 38.9297C1086.36 38.8385 1086.12 38.793 1085.83 38.793C1085.55 38.793 1085.3 38.8522 1085.07 38.9707C1084.85 39.0892 1084.66 39.251 1084.51 39.4561C1084.36 39.6611 1084.24 39.8981 1084.16 40.167C1084.08 40.4359 1084.04 40.723 1084.04 41.0283ZM1093 45H1091.35V36.8926C1091.35 36.3411 1091.45 35.8786 1091.66 35.5049C1091.87 35.1266 1092.17 34.8418 1092.55 34.6504C1092.94 34.4544 1093.4 34.3564 1093.93 34.3564C1094.09 34.3564 1094.25 34.3678 1094.41 34.3906C1094.57 34.4089 1094.73 34.4385 1094.88 34.4795L1094.84 35.751C1094.75 35.7282 1094.64 35.7122 1094.54 35.7031C1094.43 35.694 1094.32 35.6895 1094.19 35.6895C1093.94 35.6895 1093.73 35.7373 1093.54 35.833C1093.37 35.9242 1093.23 36.0586 1093.13 36.2363C1093.04 36.4141 1093 36.6328 1093 36.8926V45ZM1094.52 37.6035V38.8066H1090.22V37.6035H1094.52ZM1095.68 41.3838V41.2266C1095.68 40.6934 1095.76 40.1989 1095.92 39.7432C1096.07 39.2829 1096.29 38.8841 1096.59 38.5469C1096.88 38.2051 1097.24 37.9408 1097.67 37.7539C1098.09 37.5625 1098.58 37.4668 1099.12 37.4668C1099.66 37.4668 1100.14 37.5625 1100.56 37.7539C1100.99 37.9408 1101.36 38.2051 1101.65 38.5469C1101.95 38.8841 1102.17 39.2829 1102.33 39.7432C1102.48 40.1989 1102.56 40.6934 1102.56 41.2266V41.3838C1102.56 41.917 1102.48 42.4115 1102.33 42.8672C1102.17 43.3229 1101.95 43.7217 1101.65 44.0635C1101.36 44.4007 1101 44.665 1100.57 44.8564C1100.15 45.0433 1099.67 45.1367 1099.13 45.1367C1098.59 45.1367 1098.1 45.0433 1097.67 44.8564C1097.25 44.665 1096.89 44.4007 1096.59 44.0635C1096.3 43.7217 1096.07 43.3229 1095.92 42.8672C1095.76 42.4115 1095.68 41.917 1095.68 41.3838ZM1097.33 41.2266V41.3838C1097.33 41.7165 1097.37 42.0309 1097.43 42.3271C1097.5 42.6234 1097.61 42.8831 1097.76 43.1064C1097.9 43.3298 1098.09 43.5052 1098.32 43.6328C1098.54 43.7604 1098.81 43.8242 1099.13 43.8242C1099.43 43.8242 1099.7 43.7604 1099.92 43.6328C1100.15 43.5052 1100.34 43.3298 1100.48 43.1064C1100.63 42.8831 1100.74 42.6234 1100.8 42.3271C1100.88 42.0309 1100.91 41.7165 1100.91 41.3838V41.2266C1100.91 40.8984 1100.88 40.5885 1100.8 40.2969C1100.74 40.0007 1100.63 39.7386 1100.48 39.5107C1100.33 39.2829 1100.14 39.1051 1099.92 38.9775C1099.69 38.8454 1099.43 38.7793 1099.12 38.7793C1098.81 38.7793 1098.54 38.8454 1098.31 38.9775C1098.09 39.1051 1097.9 39.2829 1097.76 39.5107C1097.61 39.7386 1097.5 40.0007 1097.43 40.2969C1097.37 40.5885 1097.33 40.8984 1097.33 41.2266ZM1115.29 41.4453C1115.27 41.8874 1115.2 42.3271 1115.09 42.7646C1114.98 43.2021 1114.8 43.6009 1114.57 43.9609C1114.34 44.321 1114.05 44.6081 1113.69 44.8223C1113.33 45.0365 1112.9 45.1436 1112.39 45.1436C1112.09 45.1436 1111.81 45.0911 1111.58 44.9863C1111.34 44.877 1111.14 44.722 1110.98 44.5215C1110.83 44.321 1110.72 44.0794 1110.65 43.7969C1110.58 43.5098 1110.56 43.1908 1110.59 42.8398L1110.94 38.9639H1112.14L1111.8 42.8398C1111.77 43.1178 1111.77 43.3457 1111.81 43.5234C1111.85 43.7012 1111.91 43.8379 1111.99 43.9336C1112.08 44.0293 1112.17 44.0954 1112.27 44.1318C1112.38 44.1683 1112.48 44.1865 1112.59 44.1865C1112.83 44.1865 1113.06 44.1182 1113.25 43.9814C1113.45 43.8402 1113.61 43.6465 1113.75 43.4004C1113.89 43.1497 1114 42.8604 1114.08 42.5322C1114.16 42.2041 1114.21 41.8486 1114.22 41.4658C1114.25 40.8278 1114.22 40.2399 1114.13 39.7021C1114.04 39.1598 1113.89 38.6768 1113.67 38.2529C1113.45 37.8291 1113.17 37.4714 1112.83 37.1797C1112.49 36.8835 1112.08 36.6579 1111.6 36.5029C1111.12 36.348 1110.57 36.2705 1109.96 36.2705C1109.39 36.2705 1108.87 36.3571 1108.39 36.5303C1107.91 36.7035 1107.48 36.9541 1107.11 37.2822C1106.73 37.6058 1106.4 37.9954 1106.13 38.4512C1105.86 38.9023 1105.65 39.4105 1105.49 39.9756C1105.34 40.5361 1105.25 41.1377 1105.23 41.7803C1105.19 42.4548 1105.23 43.07 1105.33 43.626C1105.43 44.182 1105.6 44.6742 1105.83 45.1025C1106.07 45.5309 1106.36 45.891 1106.71 46.1826C1107.07 46.4788 1107.48 46.7021 1107.94 46.8525C1108.41 47.0029 1108.93 47.0781 1109.5 47.0781C1109.9 47.0781 1110.31 47.0326 1110.72 46.9414C1111.13 46.8503 1111.48 46.7295 1111.76 46.5791L1112.02 47.4883C1111.7 47.6934 1111.3 47.846 1110.83 47.9463C1110.35 48.0465 1109.9 48.0967 1109.47 48.0967C1108.77 48.0967 1108.12 48.0055 1107.53 47.8232C1106.95 47.641 1106.43 47.3721 1105.98 47.0166C1105.53 46.6657 1105.16 46.235 1104.86 45.7246C1104.57 45.2142 1104.35 44.6286 1104.21 43.9678C1104.07 43.307 1104.01 42.5778 1104.04 41.7803C1104.08 41.0329 1104.19 40.3311 1104.39 39.6748C1104.58 39.014 1104.85 38.4147 1105.19 37.877C1105.54 37.3392 1105.95 36.8766 1106.42 36.4893C1106.9 36.0973 1107.44 35.7965 1108.04 35.5869C1108.63 35.3773 1109.28 35.2725 1109.98 35.2725C1110.7 35.2725 1111.34 35.3659 1111.91 35.5527C1112.49 35.7396 1112.99 36.0107 1113.42 36.3662C1113.86 36.7217 1114.22 37.1523 1114.51 37.6582C1114.8 38.1641 1115.01 38.736 1115.14 39.374C1115.27 40.0075 1115.32 40.6979 1115.29 41.4453ZM1108.34 42.0947C1108.3 42.4046 1108.3 42.6803 1108.33 42.9219C1108.36 43.1634 1108.42 43.3662 1108.5 43.5303C1108.59 43.6943 1108.7 43.8197 1108.84 43.9062C1108.97 43.9928 1109.13 44.0361 1109.31 44.0361C1109.43 44.0361 1109.55 44.0088 1109.68 43.9541C1109.81 43.8949 1109.94 43.8014 1110.07 43.6738C1110.19 43.5462 1110.31 43.3776 1110.43 43.168C1110.54 42.9538 1110.64 42.6895 1110.72 42.375L1111.24 42.9697C1111.13 43.3252 1111 43.6396 1110.84 43.9131C1110.68 44.182 1110.5 44.4076 1110.3 44.5898C1110.1 44.7676 1109.88 44.9043 1109.65 45C1109.42 45.0911 1109.18 45.1367 1108.92 45.1367C1108.59 45.1367 1108.3 45.0638 1108.04 44.918C1107.78 44.7721 1107.57 44.5671 1107.41 44.3027C1107.24 44.0339 1107.13 43.7148 1107.06 43.3457C1106.99 42.972 1106.98 42.555 1107.02 42.0947C1107.06 41.6253 1107.15 41.1901 1107.28 40.7891C1107.41 40.388 1107.57 40.0303 1107.76 39.7158C1107.96 39.4014 1108.18 39.1348 1108.43 38.916C1108.67 38.6927 1108.94 38.5241 1109.22 38.4102C1109.51 38.2917 1109.8 38.2324 1110.1 38.2324C1110.62 38.2324 1111.02 38.3053 1111.31 38.4512C1111.6 38.597 1111.88 38.7679 1112.14 38.9639L1111.5 39.7842C1111.36 39.6611 1111.19 39.5449 1110.98 39.4355C1110.77 39.3262 1110.52 39.2715 1110.22 39.2715C1109.96 39.2715 1109.73 39.3307 1109.51 39.4492C1109.3 39.5677 1109.12 39.7477 1108.96 39.9893C1108.8 40.2262 1108.66 40.5202 1108.56 40.8711C1108.45 41.222 1108.38 41.6299 1108.34 42.0947ZM1121.58 43.4688V34.5H1123.23V45H1121.73L1121.58 43.4688ZM1116.77 41.3838V41.2402C1116.77 40.6797 1116.83 40.1693 1116.96 39.709C1117.1 39.2441 1117.29 38.8454 1117.54 38.5127C1117.79 38.1755 1118.09 37.918 1118.45 37.7402C1118.81 37.5579 1119.22 37.4668 1119.67 37.4668C1120.12 37.4668 1120.51 37.5534 1120.85 37.7266C1121.18 37.8997 1121.47 38.1481 1121.71 38.4717C1121.94 38.7907 1122.13 39.1735 1122.28 39.6201C1122.42 40.0622 1122.52 40.5544 1122.58 41.0967V41.5547C1122.52 42.0833 1122.42 42.5664 1122.28 43.0039C1122.13 43.4414 1121.94 43.8197 1121.71 44.1387C1121.47 44.4577 1121.18 44.7038 1120.84 44.877C1120.5 45.0501 1120.11 45.1367 1119.66 45.1367C1119.21 45.1367 1118.81 45.0433 1118.45 44.8564C1118.09 44.6696 1117.79 44.4076 1117.54 44.0703C1117.29 43.7331 1117.1 43.3366 1116.96 42.8809C1116.83 42.4206 1116.77 41.9215 1116.77 41.3838ZM1118.41 41.2402V41.3838C1118.41 41.721 1118.44 42.0355 1118.5 42.3271C1118.57 42.6188 1118.66 42.8763 1118.8 43.0996C1118.93 43.3184 1119.1 43.4915 1119.31 43.6191C1119.52 43.7422 1119.78 43.8037 1120.07 43.8037C1120.45 43.8037 1120.76 43.7217 1121 43.5576C1121.24 43.3936 1121.43 43.1725 1121.56 42.8945C1121.71 42.612 1121.8 42.2975 1121.85 41.9512V40.7139C1121.82 40.445 1121.77 40.1943 1121.68 39.9619C1121.6 39.7295 1121.49 39.5267 1121.35 39.3535C1121.2 39.1758 1121.03 39.0391 1120.82 38.9434C1120.61 38.8431 1120.37 38.793 1120.09 38.793C1119.79 38.793 1119.53 38.8568 1119.32 38.9844C1119.11 39.112 1118.94 39.2874 1118.8 39.5107C1118.67 39.734 1118.57 39.9938 1118.51 40.29C1118.44 40.5863 1118.41 40.903 1118.41 41.2402ZM1128.5 45.1367C1127.95 45.1367 1127.45 45.0479 1127.01 44.8701C1126.57 44.6878 1126.2 44.4349 1125.89 44.1113C1125.59 43.7878 1125.35 43.4072 1125.19 42.9697C1125.02 42.5322 1124.94 42.0605 1124.94 41.5547V41.2812C1124.94 40.7025 1125.03 40.1784 1125.19 39.709C1125.36 39.2396 1125.6 38.8385 1125.9 38.5059C1126.2 38.1686 1126.55 37.9111 1126.96 37.7334C1127.37 37.5557 1127.82 37.4668 1128.3 37.4668C1128.83 37.4668 1129.29 37.5557 1129.68 37.7334C1130.08 37.9111 1130.41 38.1618 1130.67 38.4854C1130.93 38.8044 1131.13 39.1849 1131.26 39.627C1131.39 40.069 1131.46 40.5566 1131.46 41.0898V41.7939H1125.74V40.6113H1129.83V40.4814C1129.82 40.1852 1129.76 39.9072 1129.65 39.6475C1129.55 39.3877 1129.38 39.1781 1129.17 39.0186C1128.95 38.859 1128.65 38.7793 1128.29 38.7793C1128.02 38.7793 1127.77 38.8385 1127.56 38.957C1127.35 39.071 1127.17 39.2373 1127.03 39.4561C1126.89 39.6748 1126.78 39.9391 1126.7 40.249C1126.63 40.5544 1126.6 40.8984 1126.6 41.2812V41.5547C1126.6 41.8783 1126.64 42.179 1126.72 42.457C1126.82 42.7305 1126.95 42.9697 1127.12 43.1748C1127.29 43.3799 1127.5 43.5417 1127.75 43.6602C1128 43.7741 1128.28 43.8311 1128.59 43.8311C1128.99 43.8311 1129.34 43.7513 1129.65 43.5918C1129.96 43.4323 1130.23 43.2067 1130.46 42.915L1131.33 43.7559C1131.17 43.9883 1130.96 44.2116 1130.7 44.4258C1130.45 44.6354 1130.14 44.8063 1129.77 44.9385C1129.4 45.0706 1128.98 45.1367 1128.5 45.1367ZM1135.33 43.6943L1137.14 37.6035H1138.85L1136.28 45H1135.21L1135.33 43.6943ZM1133.94 37.6035L1135.79 43.7217L1135.88 45H1134.81L1132.23 37.6035H1133.94ZM1144.3 42.9971C1144.3 42.833 1144.26 42.6849 1144.18 42.5527C1144.09 42.416 1143.94 42.293 1143.7 42.1836C1143.48 42.0742 1143.14 41.974 1142.69 41.8828C1142.3 41.7962 1141.94 41.6937 1141.61 41.5752C1141.29 41.4521 1141.01 41.304 1140.78 41.1309C1140.55 40.9577 1140.37 40.7526 1140.24 40.5156C1140.11 40.2786 1140.05 40.0052 1140.05 39.6953C1140.05 39.3945 1140.11 39.1097 1140.25 38.8408C1140.38 38.5719 1140.57 38.335 1140.81 38.1299C1141.06 37.9248 1141.36 37.763 1141.71 37.6445C1142.06 37.526 1142.46 37.4668 1142.9 37.4668C1143.52 37.4668 1144.05 37.5716 1144.49 37.7812C1144.94 37.9863 1145.28 38.2666 1145.52 38.6221C1145.75 38.973 1145.87 39.3695 1145.87 39.8115H1144.22C1144.22 39.6156 1144.17 39.4333 1144.07 39.2646C1143.98 39.0915 1143.83 38.9525 1143.64 38.8477C1143.44 38.7383 1143.19 38.6836 1142.9 38.6836C1142.62 38.6836 1142.38 38.7292 1142.19 38.8203C1142.01 38.9069 1141.88 39.0208 1141.78 39.1621C1141.7 39.3034 1141.65 39.4583 1141.65 39.627C1141.65 39.75 1141.68 39.8617 1141.72 39.9619C1141.77 40.0576 1141.85 40.1465 1141.97 40.2285C1142.08 40.306 1142.24 40.3789 1142.43 40.4473C1142.63 40.5156 1142.88 40.5817 1143.19 40.6455C1143.75 40.764 1144.24 40.9167 1144.64 41.1035C1145.05 41.2858 1145.37 41.5228 1145.58 41.8145C1145.8 42.1016 1145.91 42.4661 1145.91 42.9082C1145.91 43.2363 1145.84 43.5371 1145.7 43.8105C1145.56 44.0794 1145.36 44.3141 1145.1 44.5146C1144.84 44.7106 1144.52 44.8633 1144.15 44.9727C1143.78 45.082 1143.37 45.1367 1142.92 45.1367C1142.25 45.1367 1141.68 45.0182 1141.22 44.7812C1140.75 44.5397 1140.4 44.2321 1140.16 43.8584C1139.92 43.4801 1139.8 43.0882 1139.8 42.6826H1141.39C1141.41 42.988 1141.5 43.2318 1141.65 43.4141C1141.8 43.5918 1141.99 43.7217 1142.22 43.8037C1142.45 43.8812 1142.69 43.9199 1142.94 43.9199C1143.24 43.9199 1143.48 43.8812 1143.68 43.8037C1143.88 43.7217 1144.04 43.6123 1144.14 43.4756C1144.25 43.3343 1144.3 43.1748 1144.3 42.9971ZM1151.03 37.6035V38.8066H1146.86V37.6035H1151.03ZM1148.06 35.792H1149.71V42.9561C1149.71 43.1839 1149.74 43.3594 1149.8 43.4824C1149.87 43.6009 1149.96 43.6807 1150.08 43.7217C1150.2 43.7627 1150.34 43.7832 1150.5 43.7832C1150.61 43.7832 1150.72 43.7764 1150.83 43.7627C1150.93 43.749 1151.02 43.7354 1151.08 43.7217L1151.09 44.9795C1150.95 45.0205 1150.79 45.057 1150.61 45.0889C1150.43 45.1208 1150.23 45.1367 1149.99 45.1367C1149.62 45.1367 1149.28 45.0706 1148.99 44.9385C1148.7 44.8018 1148.47 44.5807 1148.31 44.2754C1148.14 43.9701 1148.06 43.5645 1148.06 43.0586V35.792ZM1157.03 43.2568V37.6035H1158.68V45H1157.12L1157.03 43.2568ZM1157.26 41.7188L1157.81 41.7051C1157.81 42.2018 1157.76 42.6598 1157.65 43.0791C1157.54 43.4938 1157.37 43.8561 1157.14 44.166C1156.92 44.4714 1156.62 44.7106 1156.27 44.8838C1155.91 45.0524 1155.49 45.1367 1154.99 45.1367C1154.63 45.1367 1154.3 45.0843 1154 44.9795C1153.7 44.8747 1153.44 44.7129 1153.22 44.4941C1153.01 44.2754 1152.84 43.9906 1152.72 43.6396C1152.6 43.2887 1152.54 42.8695 1152.54 42.3818V37.6035H1154.19V42.3955C1154.19 42.6644 1154.22 42.89 1154.29 43.0723C1154.35 43.25 1154.44 43.3936 1154.55 43.5029C1154.66 43.6123 1154.78 43.6898 1154.93 43.7354C1155.07 43.7809 1155.23 43.8037 1155.39 43.8037C1155.86 43.8037 1156.23 43.7126 1156.5 43.5303C1156.77 43.3434 1156.97 43.0928 1157.08 42.7783C1157.2 42.4639 1157.26 42.1107 1157.26 41.7188ZM1165.16 43.4688V34.5H1166.82V45H1165.32L1165.16 43.4688ZM1160.35 41.3838V41.2402C1160.35 40.6797 1160.42 40.1693 1160.55 39.709C1160.68 39.2441 1160.87 38.8454 1161.12 38.5127C1161.37 38.1755 1161.68 37.918 1162.04 37.7402C1162.4 37.5579 1162.8 37.4668 1163.25 37.4668C1163.7 37.4668 1164.09 37.5534 1164.43 37.7266C1164.77 37.8997 1165.05 38.1481 1165.29 38.4717C1165.53 38.7907 1165.72 39.1735 1165.86 39.6201C1166 40.0622 1166.1 40.5544 1166.16 41.0967V41.5547C1166.1 42.0833 1166 42.5664 1165.86 43.0039C1165.72 43.4414 1165.53 43.8197 1165.29 44.1387C1165.05 44.4577 1164.77 44.7038 1164.42 44.877C1164.09 45.0501 1163.69 45.1367 1163.24 45.1367C1162.79 45.1367 1162.39 45.0433 1162.03 44.8564C1161.68 44.6696 1161.37 44.4076 1161.12 44.0703C1160.87 43.7331 1160.68 43.3366 1160.55 42.8809C1160.42 42.4206 1160.35 41.9215 1160.35 41.3838ZM1162 41.2402V41.3838C1162 41.721 1162.03 42.0355 1162.09 42.3271C1162.15 42.6188 1162.25 42.8763 1162.38 43.0996C1162.51 43.3184 1162.68 43.4915 1162.89 43.6191C1163.11 43.7422 1163.36 43.8037 1163.66 43.8037C1164.03 43.8037 1164.34 43.7217 1164.58 43.5576C1164.82 43.3936 1165.01 43.1725 1165.15 42.8945C1165.29 42.612 1165.39 42.2975 1165.44 41.9512V40.7139C1165.41 40.445 1165.35 40.1943 1165.26 39.9619C1165.18 39.7295 1165.07 39.5267 1164.93 39.3535C1164.79 39.1758 1164.61 39.0391 1164.4 38.9434C1164.2 38.8431 1163.95 38.793 1163.67 38.793C1163.37 38.793 1163.12 38.8568 1162.91 38.9844C1162.7 39.112 1162.52 39.2874 1162.39 39.5107C1162.25 39.734 1162.16 39.9938 1162.09 40.29C1162.03 40.5863 1162 40.903 1162 41.2402ZM1170.58 37.6035V45H1168.93V37.6035H1170.58ZM1168.82 35.6621C1168.82 35.4115 1168.9 35.2041 1169.07 35.04C1169.23 34.8714 1169.47 34.7871 1169.76 34.7871C1170.05 34.7871 1170.28 34.8714 1170.45 35.04C1170.62 35.2041 1170.71 35.4115 1170.71 35.6621C1170.71 35.9082 1170.62 36.1133 1170.45 36.2773C1170.28 36.4414 1170.05 36.5234 1169.76 36.5234C1169.47 36.5234 1169.23 36.4414 1169.07 36.2773C1168.9 36.1133 1168.82 35.9082 1168.82 35.6621ZM1172.35 41.3838V41.2266C1172.35 40.6934 1172.43 40.1989 1172.59 39.7432C1172.74 39.2829 1172.96 38.8841 1173.26 38.5469C1173.55 38.2051 1173.91 37.9408 1174.34 37.7539C1174.76 37.5625 1175.25 37.4668 1175.78 37.4668C1176.33 37.4668 1176.81 37.5625 1177.23 37.7539C1177.66 37.9408 1178.02 38.2051 1178.32 38.5469C1178.62 38.8841 1178.84 39.2829 1179 39.7432C1179.15 40.1989 1179.23 40.6934 1179.23 41.2266V41.3838C1179.23 41.917 1179.15 42.4115 1179 42.8672C1178.84 43.3229 1178.62 43.7217 1178.32 44.0635C1178.02 44.4007 1177.66 44.665 1177.24 44.8564C1176.82 45.0433 1176.34 45.1367 1175.8 45.1367C1175.26 45.1367 1174.77 45.0433 1174.34 44.8564C1173.92 44.665 1173.56 44.4007 1173.26 44.0635C1172.97 43.7217 1172.74 43.3229 1172.59 42.8672C1172.43 42.4115 1172.35 41.917 1172.35 41.3838ZM1174 41.2266V41.3838C1174 41.7165 1174.03 42.0309 1174.1 42.3271C1174.17 42.6234 1174.28 42.8831 1174.42 43.1064C1174.57 43.3298 1174.76 43.5052 1174.98 43.6328C1175.21 43.7604 1175.48 43.8242 1175.8 43.8242C1176.1 43.8242 1176.37 43.7604 1176.59 43.6328C1176.82 43.5052 1177.01 43.3298 1177.15 43.1064C1177.3 42.8831 1177.4 42.6234 1177.47 42.3271C1177.55 42.0309 1177.58 41.7165 1177.58 41.3838V41.2266C1177.58 40.8984 1177.55 40.5885 1177.47 40.2969C1177.4 40.0007 1177.3 39.7386 1177.14 39.5107C1177 39.2829 1176.81 39.1051 1176.58 38.9775C1176.36 38.8454 1176.09 38.7793 1175.78 38.7793C1175.47 38.7793 1175.21 38.8454 1174.98 38.9775C1174.75 39.1051 1174.57 39.2829 1174.42 39.5107C1174.28 39.7386 1174.17 40.0007 1174.1 40.2969C1174.03 40.5885 1174 40.8984 1174 41.2266ZM1180.96 44.1797C1180.96 43.9245 1181.05 43.7103 1181.22 43.5371C1181.39 43.3594 1181.63 43.2705 1181.92 43.2705C1182.22 43.2705 1182.46 43.3594 1182.63 43.5371C1182.8 43.7103 1182.89 43.9245 1182.89 44.1797C1182.89 44.4349 1182.8 44.6491 1182.63 44.8223C1182.46 44.9954 1182.22 45.082 1181.92 45.082C1181.63 45.082 1181.39 44.9954 1181.22 44.8223C1181.05 44.6491 1180.96 44.4349 1180.96 44.1797ZM1188.09 43.8242C1188.36 43.8242 1188.6 43.7718 1188.81 43.667C1189.03 43.5576 1189.21 43.4072 1189.34 43.2158C1189.48 43.0244 1189.55 42.8034 1189.57 42.5527H1191.12C1191.11 43.0312 1190.97 43.4665 1190.69 43.8584C1190.42 44.2503 1190.06 44.5625 1189.61 44.7949C1189.16 45.0228 1188.66 45.1367 1188.11 45.1367C1187.54 45.1367 1187.05 45.041 1186.63 44.8496C1186.21 44.6536 1185.86 44.3848 1185.59 44.043C1185.31 43.7012 1185.1 43.307 1184.96 42.8604C1184.82 42.4137 1184.75 41.9352 1184.75 41.4248V41.1855C1184.75 40.6751 1184.82 40.1966 1184.96 39.75C1185.1 39.2988 1185.31 38.9023 1185.59 38.5605C1185.86 38.2188 1186.21 37.9521 1186.63 37.7607C1187.05 37.5648 1187.54 37.4668 1188.1 37.4668C1188.69 37.4668 1189.21 37.5853 1189.66 37.8223C1190.11 38.0547 1190.46 38.3805 1190.71 38.7998C1190.97 39.2145 1191.11 39.6976 1191.12 40.249H1189.57C1189.55 39.9756 1189.48 39.7295 1189.36 39.5107C1189.24 39.2874 1189.07 39.1097 1188.85 38.9775C1188.64 38.8454 1188.38 38.7793 1188.08 38.7793C1187.75 38.7793 1187.47 38.8477 1187.25 38.9844C1187.04 39.1165 1186.87 39.2988 1186.74 39.5312C1186.62 39.7591 1186.53 40.0166 1186.48 40.3037C1186.43 40.5863 1186.4 40.8802 1186.4 41.1855V41.4248C1186.4 41.7301 1186.43 42.0264 1186.48 42.3135C1186.53 42.6006 1186.61 42.8581 1186.74 43.0859C1186.86 43.3092 1187.04 43.4893 1187.25 43.626C1187.47 43.7581 1187.75 43.8242 1188.09 43.8242ZM1192.35 41.3838V41.2266C1192.35 40.6934 1192.42 40.1989 1192.58 39.7432C1192.73 39.2829 1192.96 38.8841 1193.25 38.5469C1193.55 38.2051 1193.91 37.9408 1194.33 37.7539C1194.76 37.5625 1195.24 37.4668 1195.78 37.4668C1196.32 37.4668 1196.8 37.5625 1197.23 37.7539C1197.66 37.9408 1198.02 38.2051 1198.31 38.5469C1198.61 38.8841 1198.84 39.2829 1198.99 39.7432C1199.15 40.1989 1199.22 40.6934 1199.22 41.2266V41.3838C1199.22 41.917 1199.15 42.4115 1198.99 42.8672C1198.84 43.3229 1198.61 43.7217 1198.31 44.0635C1198.02 44.4007 1197.66 44.665 1197.23 44.8564C1196.81 45.0433 1196.33 45.1367 1195.79 45.1367C1195.25 45.1367 1194.76 45.0433 1194.34 44.8564C1193.91 44.665 1193.55 44.4007 1193.26 44.0635C1192.96 43.7217 1192.73 43.3229 1192.58 42.8672C1192.42 42.4115 1192.35 41.917 1192.35 41.3838ZM1193.99 41.2266V41.3838C1193.99 41.7165 1194.03 42.0309 1194.1 42.3271C1194.17 42.6234 1194.27 42.8831 1194.42 43.1064C1194.56 43.3298 1194.75 43.5052 1194.98 43.6328C1195.21 43.7604 1195.48 43.8242 1195.79 43.8242C1196.1 43.8242 1196.36 43.7604 1196.59 43.6328C1196.81 43.5052 1197 43.3298 1197.15 43.1064C1197.29 42.8831 1197.4 42.6234 1197.47 42.3271C1197.54 42.0309 1197.58 41.7165 1197.58 41.3838V41.2266C1197.58 40.8984 1197.54 40.5885 1197.47 40.2969C1197.4 40.0007 1197.29 39.7386 1197.14 39.5107C1196.99 39.2829 1196.81 39.1051 1196.58 38.9775C1196.36 38.8454 1196.09 38.7793 1195.78 38.7793C1195.47 38.7793 1195.2 38.8454 1194.97 38.9775C1194.75 39.1051 1194.56 39.2829 1194.42 39.5107C1194.27 39.7386 1194.17 40.0007 1194.1 40.2969C1194.03 40.5885 1193.99 40.8984 1193.99 41.2266ZM1202.53 39.1074V45H1200.89V37.6035H1202.44L1202.53 39.1074ZM1202.27 41.0283L1201.71 41.0215C1201.71 40.5111 1201.77 40.0394 1201.9 39.6064C1202.02 39.1735 1202.21 38.7975 1202.46 38.4785C1202.7 38.1549 1203.01 37.9066 1203.37 37.7334C1203.74 37.5557 1204.17 37.4668 1204.65 37.4668C1204.99 37.4668 1205.3 37.5169 1205.57 37.6172C1205.86 37.7129 1206.1 37.8656 1206.31 38.0752C1206.52 38.2848 1206.68 38.5537 1206.78 38.8818C1206.9 39.21 1206.96 39.6064 1206.96 40.0713V45H1205.31V40.2148C1205.31 39.8548 1205.25 39.5723 1205.14 39.3672C1205.04 39.1621 1204.89 39.0163 1204.69 38.9297C1204.49 38.8385 1204.26 38.793 1203.98 38.793C1203.67 38.793 1203.41 38.8522 1203.19 38.9707C1202.97 39.0892 1202.8 39.251 1202.66 39.4561C1202.53 39.6611 1202.43 39.8981 1202.36 40.167C1202.3 40.4359 1202.27 40.723 1202.27 41.0283ZM1206.85 40.5908L1206.08 40.7617C1206.08 40.3151 1206.14 39.8936 1206.26 39.4971C1206.39 39.096 1206.58 38.7451 1206.82 38.4443C1207.06 38.139 1207.37 37.8997 1207.73 37.7266C1208.09 37.5534 1208.5 37.4668 1208.97 37.4668C1209.34 37.4668 1209.68 37.5192 1209.98 37.624C1210.28 37.7243 1210.53 37.8838 1210.74 38.1025C1210.95 38.3213 1211.11 38.6061 1211.22 38.957C1211.33 39.3034 1211.39 39.7227 1211.39 40.2148V45H1209.73V40.208C1209.73 39.8343 1209.68 39.5449 1209.57 39.3398C1209.46 39.1348 1209.31 38.9935 1209.12 38.916C1208.92 38.834 1208.68 38.793 1208.41 38.793C1208.16 38.793 1207.93 38.8408 1207.73 38.9365C1207.54 39.0277 1207.38 39.1576 1207.25 39.3262C1207.12 39.4902 1207.02 39.6794 1206.95 39.8936C1206.88 40.1077 1206.85 40.3402 1206.85 40.5908Z" fill="#2196F3"/>
<path d="M1270.27 39.5449V41.0283H1263.45V39.5449H1270.27ZM1267.66 36.7559V44.002H1266.07V36.7559H1267.66ZM1273.75 39.2783H1274.73C1275.11 39.2783 1275.43 39.2122 1275.68 39.0801C1275.94 38.9479 1276.12 38.7656 1276.25 38.5332C1276.37 38.3008 1276.43 38.0342 1276.43 37.7334C1276.43 37.4189 1276.38 37.1501 1276.26 36.9268C1276.15 36.6989 1275.98 36.5234 1275.76 36.4004C1275.53 36.2773 1275.25 36.2158 1274.9 36.2158C1274.61 36.2158 1274.35 36.2751 1274.11 36.3936C1273.88 36.5075 1273.69 36.6715 1273.55 36.8857C1273.42 37.0954 1273.35 37.346 1273.35 37.6377H1271.7C1271.7 37.109 1271.83 36.6396 1272.11 36.2295C1272.39 35.8193 1272.77 35.498 1273.25 35.2656C1273.73 35.0286 1274.27 34.9102 1274.87 34.9102C1275.52 34.9102 1276.08 35.0173 1276.56 35.2314C1277.04 35.4411 1277.41 35.7555 1277.68 36.1748C1277.95 36.5941 1278.09 37.1136 1278.09 37.7334C1278.09 38.016 1278.02 38.3031 1277.89 38.5947C1277.76 38.8864 1277.56 39.153 1277.3 39.3945C1277.04 39.6315 1276.72 39.8252 1276.33 39.9756C1275.94 40.1214 1275.49 40.1943 1274.98 40.1943H1273.75V39.2783ZM1273.75 40.5635V39.6611H1274.98C1275.57 39.6611 1276.06 39.7295 1276.47 39.8662C1276.89 40.0029 1277.23 40.1921 1277.49 40.4336C1277.74 40.6706 1277.93 40.9417 1278.05 41.2471C1278.18 41.5524 1278.24 41.876 1278.24 42.2178C1278.24 42.6826 1278.15 43.0973 1277.98 43.4619C1277.82 43.8219 1277.59 44.1273 1277.28 44.3779C1276.97 44.6286 1276.62 44.8177 1276.21 44.9453C1275.8 45.0729 1275.36 45.1367 1274.88 45.1367C1274.45 45.1367 1274.04 45.0775 1273.65 44.959C1273.26 44.8405 1272.91 44.665 1272.6 44.4326C1272.29 44.1956 1272.04 43.9017 1271.86 43.5508C1271.68 43.1953 1271.59 42.7852 1271.59 42.3203H1273.24C1273.24 42.6165 1273.31 42.8786 1273.45 43.1064C1273.59 43.3298 1273.78 43.5052 1274.03 43.6328C1274.29 43.7604 1274.58 43.8242 1274.91 43.8242C1275.25 43.8242 1275.55 43.7627 1275.8 43.6396C1276.05 43.5166 1276.25 43.3343 1276.38 43.0928C1276.51 42.8512 1276.58 42.5596 1276.58 42.2178C1276.58 41.8304 1276.51 41.516 1276.36 41.2744C1276.21 41.0329 1275.99 40.8551 1275.71 40.7412C1275.44 40.6227 1275.11 40.5635 1274.73 40.5635H1273.75ZM1286.56 42.2861C1286.56 42.9059 1286.41 43.4277 1286.13 43.8516C1285.84 44.2754 1285.45 44.5967 1284.95 44.8154C1284.46 45.0296 1283.9 45.1367 1283.28 45.1367C1282.66 45.1367 1282.1 45.0296 1281.61 44.8154C1281.11 44.5967 1280.72 44.2754 1280.43 43.8516C1280.14 43.4277 1280 42.9059 1280 42.2861C1280 41.876 1280.08 41.5046 1280.24 41.1719C1280.4 40.8346 1280.62 40.5452 1280.92 40.3037C1281.21 40.0576 1281.56 39.8685 1281.96 39.7363C1282.36 39.6042 1282.79 39.5381 1283.27 39.5381C1283.9 39.5381 1284.46 39.6543 1284.96 39.8867C1285.45 40.1191 1285.84 40.4404 1286.13 40.8506C1286.41 41.2607 1286.56 41.7393 1286.56 42.2861ZM1284.9 42.2041C1284.9 41.8714 1284.83 41.5798 1284.7 41.3291C1284.56 41.0785 1284.37 40.8848 1284.12 40.748C1283.88 40.6113 1283.59 40.543 1283.27 40.543C1282.94 40.543 1282.66 40.6113 1282.41 40.748C1282.17 40.8848 1281.98 41.0785 1281.85 41.3291C1281.71 41.5798 1281.65 41.8714 1281.65 42.2041C1281.65 42.5413 1281.71 42.833 1281.85 43.0791C1281.98 43.3206 1282.17 43.5052 1282.41 43.6328C1282.66 43.7604 1282.95 43.8242 1283.28 43.8242C1283.61 43.8242 1283.9 43.7604 1284.14 43.6328C1284.38 43.5052 1284.57 43.3206 1284.7 43.0791C1284.84 42.833 1284.9 42.5413 1284.9 42.2041ZM1286.33 37.665C1286.33 38.1618 1286.2 38.6038 1285.93 38.9912C1285.67 39.3786 1285.31 39.6839 1284.85 39.9072C1284.39 40.126 1283.87 40.2354 1283.28 40.2354C1282.69 40.2354 1282.16 40.126 1281.7 39.9072C1281.24 39.6839 1280.87 39.3786 1280.61 38.9912C1280.35 38.6038 1280.22 38.1618 1280.22 37.665C1280.22 37.0726 1280.35 36.5736 1280.61 36.168C1280.87 35.7578 1281.24 35.4456 1281.7 35.2314C1282.16 35.0173 1282.68 34.9102 1283.27 34.9102C1283.87 34.9102 1284.39 35.0173 1284.85 35.2314C1285.31 35.4456 1285.67 35.7578 1285.93 36.168C1286.2 36.5736 1286.33 37.0726 1286.33 37.665ZM1284.68 37.7197C1284.68 37.4235 1284.62 37.1637 1284.51 36.9404C1284.39 36.7126 1284.23 36.5348 1284.02 36.4072C1283.81 36.2796 1283.56 36.2158 1283.27 36.2158C1282.99 36.2158 1282.74 36.2773 1282.53 36.4004C1282.32 36.5234 1282.16 36.6966 1282.04 36.9199C1281.93 37.1432 1281.87 37.4098 1281.87 37.7197C1281.87 38.0251 1281.93 38.2917 1282.04 38.5195C1282.16 38.7428 1282.32 38.9183 1282.53 39.0459C1282.74 39.1735 1282.99 39.2373 1283.28 39.2373C1283.57 39.2373 1283.82 39.1735 1284.03 39.0459C1284.24 38.9183 1284.4 38.7428 1284.51 38.5195C1284.63 38.2917 1284.68 38.0251 1284.68 37.7197ZM1298.54 39.1895V40.8164C1298.54 41.5957 1298.46 42.2611 1298.31 42.8125C1298.16 43.3594 1297.94 43.8037 1297.65 44.1455C1297.36 44.4873 1297.02 44.738 1296.62 44.8975C1296.22 45.057 1295.78 45.1367 1295.29 45.1367C1294.89 45.1367 1294.53 45.0866 1294.19 44.9863C1293.86 44.8861 1293.56 44.7288 1293.29 44.5146C1293.02 44.3005 1292.79 44.0247 1292.6 43.6875C1292.41 43.3457 1292.27 42.9378 1292.16 42.4639C1292.06 41.9899 1292.01 41.4408 1292.01 40.8164V39.1895C1292.01 38.4056 1292.09 37.7448 1292.24 37.207C1292.4 36.6647 1292.62 36.2249 1292.91 35.8877C1293.19 35.5459 1293.54 35.2975 1293.93 35.1426C1294.33 34.9876 1294.78 34.9102 1295.27 34.9102C1295.67 34.9102 1296.03 34.9603 1296.37 35.0605C1296.7 35.1562 1297 35.3089 1297.27 35.5186C1297.54 35.7282 1297.76 36.0016 1297.95 36.3389C1298.14 36.6715 1298.29 37.0749 1298.39 37.5488C1298.49 38.0182 1298.54 38.5651 1298.54 39.1895ZM1296.89 41.0488V38.9434C1296.89 38.5469 1296.87 38.1982 1296.82 37.8975C1296.78 37.5921 1296.71 37.3346 1296.62 37.125C1296.53 36.9108 1296.42 36.7376 1296.29 36.6055C1296.16 36.4688 1296.01 36.3708 1295.84 36.3115C1295.67 36.2477 1295.48 36.2158 1295.27 36.2158C1295.02 36.2158 1294.79 36.266 1294.59 36.3662C1294.39 36.4619 1294.22 36.6169 1294.08 36.8311C1293.95 37.0452 1293.84 37.3278 1293.77 37.6787C1293.7 38.0251 1293.66 38.4466 1293.66 38.9434V41.0488C1293.66 41.4499 1293.69 41.8031 1293.73 42.1084C1293.78 42.4137 1293.85 42.6758 1293.94 42.8945C1294.03 43.1087 1294.14 43.2865 1294.27 43.4277C1294.4 43.5645 1294.55 43.6647 1294.72 43.7285C1294.89 43.7923 1295.08 43.8242 1295.29 43.8242C1295.54 43.8242 1295.77 43.7741 1295.98 43.6738C1296.18 43.5736 1296.34 43.4141 1296.48 43.1953C1296.62 42.972 1296.72 42.6826 1296.79 42.3271C1296.86 41.9717 1296.89 41.5456 1296.89 41.0488ZM1301.61 43.7012H1301.75C1302.38 43.7012 1302.9 43.6191 1303.32 43.4551C1303.75 43.2865 1304.08 43.054 1304.34 42.7578C1304.59 42.4616 1304.77 42.113 1304.88 41.7119C1304.98 41.3109 1305.04 40.8757 1305.04 40.4062V38.6904C1305.04 38.2848 1305 37.9294 1304.91 37.624C1304.83 37.3141 1304.71 37.0566 1304.55 36.8516C1304.4 36.6419 1304.23 36.4847 1304.03 36.3799C1303.83 36.2751 1303.62 36.2227 1303.39 36.2227C1303.14 36.2227 1302.92 36.2796 1302.72 36.3936C1302.52 36.5029 1302.35 36.6556 1302.22 36.8516C1302.08 37.043 1301.98 37.2686 1301.91 37.5283C1301.84 37.7835 1301.81 38.057 1301.81 38.3486C1301.81 38.6221 1301.84 38.8864 1301.9 39.1416C1301.97 39.3923 1302.07 39.6156 1302.2 39.8115C1302.33 40.0075 1302.5 40.1624 1302.7 40.2764C1302.9 40.3903 1303.14 40.4473 1303.41 40.4473C1303.66 40.4473 1303.9 40.3994 1304.11 40.3037C1304.32 40.2035 1304.51 40.069 1304.67 39.9004C1304.83 39.7318 1304.96 39.5426 1305.05 39.333C1305.14 39.1234 1305.19 38.9092 1305.2 38.6904L1305.83 38.8818C1305.83 39.2282 1305.75 39.57 1305.61 39.9072C1305.47 40.2399 1305.27 40.5452 1305.01 40.8232C1304.76 41.0967 1304.47 41.3154 1304.13 41.4795C1303.8 41.6436 1303.44 41.7256 1303.04 41.7256C1302.57 41.7256 1302.15 41.6367 1301.79 41.459C1301.43 41.2767 1301.12 41.0306 1300.88 40.7207C1300.65 40.4108 1300.47 40.0553 1300.35 39.6543C1300.23 39.2533 1300.17 38.8317 1300.17 38.3896C1300.17 37.9111 1300.25 37.4622 1300.39 37.043C1300.54 36.6237 1300.75 36.2546 1301.03 35.9355C1301.3 35.612 1301.64 35.3613 1302.04 35.1836C1302.44 35.0013 1302.89 34.9102 1303.4 34.9102C1303.94 34.9102 1304.41 35.015 1304.81 35.2246C1305.22 35.4342 1305.56 35.7236 1305.84 36.0928C1306.12 36.4619 1306.33 36.8903 1306.47 37.3779C1306.61 37.8656 1306.68 38.3896 1306.68 38.9502V39.5312C1306.68 40.1191 1306.63 40.6865 1306.52 41.2334C1306.42 41.7757 1306.25 42.2793 1306.01 42.7441C1305.78 43.2044 1305.47 43.61 1305.09 43.9609C1304.71 44.3073 1304.24 44.5785 1303.69 44.7744C1303.15 44.9658 1302.5 45.0615 1301.77 45.0615H1301.61V43.7012ZM1313.5 34.9854H1313.71V36.332H1313.59C1313 36.332 1312.5 36.4232 1312.07 36.6055C1311.64 36.7878 1311.29 37.0384 1311.02 37.3574C1310.75 37.6764 1310.54 38.0501 1310.41 38.4785C1310.27 38.9023 1310.21 39.3535 1310.21 39.832V41.3975C1310.21 41.7939 1310.25 42.1449 1310.34 42.4502C1310.42 42.751 1310.54 43.0039 1310.7 43.209C1310.86 43.4095 1311.04 43.5622 1311.25 43.667C1311.45 43.7718 1311.67 43.8242 1311.91 43.8242C1312.16 43.8242 1312.38 43.7741 1312.58 43.6738C1312.78 43.569 1312.95 43.4255 1313.09 43.2432C1313.23 43.0609 1313.34 42.8444 1313.41 42.5938C1313.49 42.3431 1313.52 42.0697 1313.52 41.7734C1313.52 41.4909 1313.49 41.2266 1313.41 40.9805C1313.35 40.7298 1313.24 40.5111 1313.11 40.3242C1312.97 40.1328 1312.8 39.9847 1312.59 39.8799C1312.39 39.7705 1312.16 39.7158 1311.9 39.7158C1311.57 39.7158 1311.27 39.7933 1311 39.9482C1310.74 40.1032 1310.52 40.306 1310.36 40.5566C1310.2 40.8027 1310.11 41.0648 1310.1 41.3428L1309.47 41.1377C1309.51 40.7139 1309.6 40.3333 1309.75 39.9961C1309.9 39.6589 1310.11 39.3717 1310.36 39.1348C1310.61 38.8978 1310.9 38.7178 1311.23 38.5947C1311.56 38.4671 1311.92 38.4033 1312.32 38.4033C1312.8 38.4033 1313.22 38.4945 1313.58 38.6768C1313.93 38.859 1314.23 39.1074 1314.46 39.4219C1314.7 39.7318 1314.87 40.0872 1314.99 40.4883C1315.1 40.8848 1315.16 41.2995 1315.16 41.7324C1315.16 42.2109 1315.09 42.6576 1314.94 43.0723C1314.8 43.4824 1314.58 43.8424 1314.3 44.1523C1314.02 44.4622 1313.68 44.7038 1313.28 44.877C1312.89 45.0501 1312.44 45.1367 1311.93 45.1367C1311.4 45.1367 1310.92 45.0342 1310.5 44.8291C1310.09 44.624 1309.73 44.3415 1309.44 43.9814C1309.15 43.6214 1308.94 43.2067 1308.79 42.7373C1308.64 42.2679 1308.56 41.7712 1308.56 41.2471V40.5635C1308.56 39.807 1308.66 39.0938 1308.85 38.4238C1309.04 37.7493 1309.33 37.1546 1309.73 36.6396C1310.13 36.1247 1310.64 35.7214 1311.27 35.4297C1311.89 35.1335 1312.64 34.9854 1313.5 34.9854ZM1325.03 35.0127V45H1323.38V36.9678L1320.94 37.7949V36.4346L1324.83 35.0127H1325.03ZM1333.26 35.0127V45H1331.62V36.9678L1329.18 37.7949V36.4346L1333.07 35.0127H1333.26ZM1341.5 35.0127V45H1339.85V36.9678L1337.41 37.7949V36.4346L1341.3 35.0127H1341.5ZM1353.5 35.0127V45H1351.86V36.9678L1349.42 37.7949V36.4346L1353.31 35.0127H1353.5ZM1361.74 35.0127V45H1360.09V36.9678L1357.65 37.7949V36.4346L1361.54 35.0127H1361.74ZM1373.74 35.0127V45H1372.1V36.9678L1369.66 37.7949V36.4346L1373.55 35.0127H1373.74ZM1381.98 35.0127V45H1380.33V36.9678L1377.89 37.7949V36.4346L1381.78 35.0127H1381.98Z" fill="#757575"/>
</svg>
